<svg width="90" height="28" viewBox="0 0 90 28" shape-rendering="geometricPrecision" xmlns="http://www.w3.org/2000/svg" xmlns:xlink="http://www.w3.org/1999/xlink"><g><path d="M5.4136 8.25782C5.31411 8.25782 5.21462 8.15782 5.31411 8.05782L6.01053 7.05783C6.11002 6.95782 6.20951 6.85782 6.40848 6.85782L18.9441 6.85782C19.0435 6.85782 19.143 6.95782 19.0435 7.05783L18.4466 7.95782C18.3471 8.05782 18.2476 8.15782 18.0487 8.15782L5.4136 8.25782L5.4136 8.25782ZM0.140699 11.4578C0.0412101 11.4578 -0.0582789 11.3578 0.0412101 11.2578L0.737631 10.2578C0.83712 10.1578 0.936608 10.0578 1.13559 10.0578L17.1533 10.0578C17.2527 10.0578 17.3522 10.1578 17.3522 10.2578L17.0538 11.2578C17.0538 11.3578 16.8548 11.4578 16.7553 11.4578L0.140699 11.4578ZM8.59724 14.7578C8.49775 14.7578 8.39826 14.6578 8.49775 14.5578L8.99519 13.6578C9.09468 13.5578 9.19417 13.4578 9.39314 13.4578L16.3573 13.4578C16.4568 13.4578 16.5563 13.5578 16.5563 13.6578L16.4568 14.4578C16.4568 14.5578 16.3573 14.6578 16.2579 14.6578L8.59724 14.7578L8.59724 14.7578ZM45.0101 7.55782L39.1403 9.05783C38.6428 9.15782 38.5433 9.25782 38.1454 8.65782C37.6479 8.05782 37.25 7.65782 36.4541 7.35782C34.2653 6.25782 32.0765 6.55782 30.0868 7.85782C27.6991 9.35782 26.5052 11.6578 26.5052 14.5578C26.5052 17.3578 28.495 19.6578 31.2806 20.0578C33.6684 20.3578 35.6581 19.5578 37.25 17.7578C37.5484 17.3578 37.8469 16.9578 38.2449 16.4578L31.4796 16.4578C30.7832 16.4578 30.5842 15.9578 30.7832 15.3578C31.2806 14.2578 32.0765 12.4578 32.574 11.5578C32.6735 11.3578 32.972 10.9578 33.4694 10.9578L46.2039 10.9578C46.1045 11.9578 46.1045 12.8578 46.005 13.8578C45.607 16.3578 44.7116 18.7578 43.1198 20.7578C40.6326 24.0578 37.3495 26.1578 33.1709 26.7578C29.6888 27.2578 26.5052 26.5578 23.7195 24.4578C21.1328 22.4578 19.6405 19.8578 19.2425 16.6578C18.7451 12.8578 19.9389 9.35782 22.2272 6.35782C24.7144 3.05782 27.9975 0.957824 32.0765 0.257825C35.3597 -0.342176 38.5433 0.057824 41.329 1.95782C43.2193 3.15782 44.5126 4.85782 45.408 6.95782C45.5075 7.35782 45.408 7.45782 45.0101 7.55782L45.0101 7.55782Z" shape-rendering="geometricPrecision" fill="#00ACD7" style="fill-rule:evenodd" transform="matrix(1 0 0 1 0 0)"></path><path d="M12.4969 26.673C9.31323 26.573 6.42805 25.673 3.94084 23.573C1.85158 21.773 0.558221 19.473 0.160269 16.773C-0.436661 12.773 0.657712 9.27298 3.04544 6.17298C5.63215 2.77298 8.7163 1.07298 12.8948 0.272984C16.4764 -0.327017 19.859 -0.0270174 22.8437 2.07298C25.6294 3.97298 27.3207 6.57298 27.8181 9.97298C28.415 14.773 27.0222 18.573 23.8386 21.873C21.5503 24.273 18.6652 25.673 15.4815 26.373C14.3871 26.573 13.3923 26.573 12.4969 26.673L12.4969 26.673ZM20.8539 12.473C20.8539 11.973 20.8539 11.673 20.7544 11.273C20.1575 7.77298 16.9738 5.77298 13.5912 6.57298C10.3081 7.27298 8.21885 9.37298 7.42294 12.673C6.82601 15.373 8.11936 18.173 10.6066 19.373C12.4969 20.173 14.4866 20.073 16.2774 19.173C19.1626 17.773 20.6549 15.473 20.8539 12.473L20.8539 12.473Z" shape-rendering="geometricPrecision" fill="#00ACD7" style="fill-rule:evenodd" transform="matrix(1 0 0 1 44.05389966070652 0.38484224677085876)"></path> <path d="M9.05401 25.851Q19.9707 23.6172 20.9942 0.130592L14.9999 -0.130631Q14.1803 18.6777 7.8512 19.9728Q4.92704 20.5711 1.89076 18.1093L-1.89086 22.7675L-1.8897 22.7685Q3.3503 27.0181 9.05401 25.851Z" stroke-dasharray="" stroke-linecap="butt" stroke-linejoin="miter" stroke-width="6" shape-rendering="geometricPrecision" fill="#00ACD7" transform="matrix(1 0 0 1 68.99999832603282 1)" fill-rule="evenodd"></path> </g></svg>