<svg width="74" height="28" viewBox="0 0 74 28" shape-rendering="geometricPrecision" xmlns="http://www.w3.org/2000/svg" xmlns:xlink="http://www.w3.org/1999/xlink"><g><g><path d="M5.44142 8.25782C5.34142 8.25782 5.24142 8.15782 5.34142 8.05782L6.04142 7.05783C6.14142 6.95782 6.24142 6.85782 6.44142 6.85782L19.0414 6.85782C19.1414 6.85782 19.2414 6.95782 19.1414 7.05783L18.5414 7.95782C18.4414 8.05782 18.3414 8.15782 18.1414 8.15782L5.44142 8.25782L5.44142 8.25782ZM0.141422 11.4578C0.0414219 11.4578 -0.0585785 11.3578 0.0414219 11.2578L0.741423 10.2578C0.841423 10.1578 0.941422 10.0578 1.14142 10.0578L17.2414 10.0578C17.3414 10.0578 17.4414 10.1578 17.4414 10.2578L17.1414 11.2578C17.1414 11.3578 16.9414 11.4578 16.8414 11.4578L0.141422 11.4578ZM8.64142 14.7578C8.54142 14.7578 8.44142 14.6578 8.54142 14.5578L9.04142 13.6578C9.14142 13.5578 9.24142 13.4578 9.44142 13.4578L16.4414 13.4578C16.5414 13.4578 16.6414 13.5578 16.6414 13.6578L16.5414 14.4578C16.5414 14.5578 16.4414 14.6578 16.3414 14.6578L8.64142 14.7578L8.64142 14.7578ZM45.2414 7.55782L39.3414 9.05783C38.8414 9.15782 38.7414 9.25782 38.3414 8.65782C37.8414 8.05782 37.4414 7.65782 36.6414 7.35782C34.4414 6.25782 32.2414 6.55782 30.2414 7.85782C27.8414 9.35782 26.6414 11.6578 26.6414 14.5578C26.6414 17.3578 28.6414 19.6578 31.4414 20.0578C33.8414 20.3578 35.8414 19.5578 37.4414 17.7578C37.7414 17.3578 38.0414 16.9578 38.4414 16.4578L31.6414 16.4578C30.9414 16.4578 30.7414 15.9578 30.9414 15.3578C31.4414 14.2578 32.2414 12.4578 32.7414 11.5578C32.8414 11.3578 33.1414 10.9578 33.6414 10.9578L46.4414 10.9578C46.3414 11.9578 46.3414 12.8578 46.2414 13.8578C45.8414 16.3578 44.9414 18.7578 43.3414 20.7578C40.8414 24.0578 37.5414 26.1578 33.3414 26.7578C29.8414 27.2578 26.6414 26.5578 23.8414 24.4578C21.2414 22.4578 19.7414 19.8578 19.3414 16.6578C18.8414 12.8578 20.0414 9.35782 22.3414 6.35782C24.8414 3.05782 28.1414 0.957823 32.2414 0.257824C35.5414 -0.342176 38.7414 0.0578232 41.5414 1.95782C43.4414 3.15782 44.7414 4.85782 45.6414 6.95782C45.7414 7.35782 45.6414 7.45782 45.2414 7.55782L45.2414 7.55782Z" shape-rendering="geometricPrecision" fill="#00ACD7" style="fill-rule:evenodd" transform="matrix(1 0 0 1 0.8585796356201172 0.4421730041503906)"></path><path d="M12.5611 26.673C9.36109 26.573 6.46109 25.673 3.96109 23.573C1.86109 21.773 0.56109 19.473 0.161093 16.773C-0.438906 12.773 0.661093 9.27298 3.06109 6.17298C5.6611 2.77298 8.7611 1.07298 12.9611 0.272984C16.5611 -0.327017 19.9611 -0.0270174 22.9611 2.07298C25.7611 3.97298 27.4611 6.57298 27.9611 9.97298C28.5611 14.773 27.1611 18.573 23.9611 21.873C21.6611 24.273 18.7611 25.673 15.5611 26.373C14.4611 26.573 13.4611 26.573 12.5611 26.673L12.5611 26.673ZM20.9611 12.473C20.9611 11.973 20.9611 11.673 20.8611 11.273C20.2611 7.77298 17.0611 5.77298 13.6611 6.57298C10.3611 7.27298 8.2611 9.37298 7.46109 12.673C6.86109 15.373 8.1611 18.173 10.6611 19.373C12.5611 20.173 14.5611 20.073 16.3611 19.173C19.2611 17.773 20.7611 15.473 20.9611 12.473L20.9611 12.473Z" shape-rendering="geometricPrecision" fill="#00ACD7" style="fill-rule:evenodd" transform="matrix(1 0 0 1 45.138906478881836 0.8270136415958405)"></path></g></g></svg>