<svg xmlns="http://www.w3.org/2000/svg" version="1.1" viewBox="0.00 0.00 800.00 800.00" width="800.00" height="800.00">
<g stroke-width="2.00" fill="none" stroke-linecap="butt">
<path stroke="#e4e4e4" d="&#10;  M 248.73 309.41&#10;  Q 239.43 307.41 230.09 305.45&#10;  Q 224.67 304.31 222.36 304.44&#10;  Q 218.90 304.65 214.52 304.88&#10;  C 212.51 304.99 211.18 303.63 209.48 303.65&#10;  C 205.84 303.70 201.38 305.27 199.06 305.89&#10;  C 194.81 307.03 191.32 307.12 186.67 307.54&#10;  Q 183.28 307.85 180.85 309.00&#10;  C 177.25 310.70 172.84 311.69 168.96 313.69&#10;  Q 168.43 313.96 158.42 318.91&#10;  Q 152.98 321.60 147.94 326.33&#10;  Q 144.15 329.89 142.25 331.31&#10;  Q 137.90 334.59 136.45 336.20&#10;  Q 132.89 340.13 130.35 342.12&#10;  C 127.31 344.49 126.25 346.31 124.70 349.23&#10;  Q 124.47 349.68 124.03 349.92&#10;  C 118.69 352.80 117.37 357.26 115.20 362.49&#10;  Q 114.48 364.20 113.28 365.60&#10;  C 111.19 368.02 110.19 369.40 109.74 372.46&#10;  C 109.43 374.57 108.12 375.80 106.84 376.85&#10;  Q 105.32 378.09 104.54 382.49&#10;  Q 102.46 394.19 100.79 399.61&#10;  Q 99.35 404.27 99.21 405.63&#10;  Q 98.93 408.36 97.46 411.50&#10;  Q 96.10 414.40 95.09 418.96&#10;  Q 94.98 419.47 95.19 419.96&#10;  Q 96.07 421.98 95.15 423.85&#10;  A 1.49 1.48 -37.0 0 0 95.02 424.75&#10;  Q 95.83 429.36 95.44 433.81&#10;  Q 94.89 439.88 95.18 442.05&#10;  Q 95.83 446.98 96.35 453.52&#10;  C 96.49 455.37 97.75 458.19 97.00 460.39&#10;  Q 96.84 460.89 97.06 461.36&#10;  Q 98.12 463.63 97.70 466.79&#10;  A 1.95 1.91 -52.9 0 0 97.83 467.79&#10;  Q 98.68 469.91 98.64 471.49&#10;  C 98.54 475.43 101.44 476.53 101.88 480.43&#10;  Q 102.01 481.54 102.61 482.78&#10;  Q 107.58 493.06 112.71 503.28&#10;  C 113.53 504.91 116.56 506.87 117.97 508.68&#10;  C 121.59 513.34 126.11 519.07 131.61 523.60&#10;  Q 133.93 525.51 135.74 527.83&#10;  Q 138.43 531.28 139.81 531.97&#10;  C 144.70 534.41 147.25 536.14 151.75 537.57&#10;  C 155.95 538.91 160.66 542.15 164.26 543.71&#10;  Q 167.13 544.95 170.24 546.31&#10;  Q 171.30 546.77 176.02 547.67&#10;  Q 194.77 551.24 204.77 552.36&#10;  C 209.22 552.86 214.37 551.09 219.56 552.94&#10;  C 221.47 553.61 223.72 553.87 225.95 553.17&#10;  C 229.12 552.18 233.36 552.94 236.75 553.09&#10;  C 241.36 553.28 244.24 552.75 248.69 551.00&#10;  Q 253.70 549.03 255.45 548.58&#10;  Q 257.75 547.99 261.52 546.06&#10;  C 263.75 544.92 270.27 542.83 272.82 544.24&#10;  C 276.20 546.11 277.81 552.75 272.85 554.05&#10;  C 266.12 555.82 263.71 559.85 259.49 564.24&#10;  Q 257.69 566.10 257.39 567.18&#10;  Q 255.41 574.12 252.42 580.67&#10;  Q 251.52 582.66 249.71 590.98&#10;  Q 249.05 594.04 248.35 596.73&#10;  C 246.92 602.23 246.27 604.50 247.74 609.54&#10;  C 248.95 613.66 253.26 618.75 255.51 622.25&#10;  Q 256.94 624.47 262.58 628.48&#10;  C 264.88 630.11 268.20 631.17 271.52 632.70&#10;  C 278.46 635.88 286.29 637.86 293.48 638.79&#10;  C 298.00 639.38 301.55 640.46 307.20 641.61&#10;  C 310.27 642.23 312.84 643.25 315.68 644.64&#10;  C 317.89 645.72 321.66 646.47 323.75 646.51&#10;  C 333.56 646.72 340.71 646.82 348.99 648.77&#10;  Q 355.81 650.38 360.24 650.85&#10;  Q 365.27 651.39 377.38 653.42&#10;  Q 380.20 653.89 383.33 653.66&#10;  C 388.76 653.26 393.27 654.10 398.59 654.05&#10;  Q 405.08 654.00 407.91 654.24&#10;  Q 410.12 654.42 417.50 655.14&#10;  Q 421.40 655.52 429.25 654.40&#10;  C 438.88 653.02 448.89 652.80 455.31 652.57&#10;  Q 461.11 652.36 466.18 651.23&#10;  Q 468.95 650.61 475.45 650.06&#10;  C 482.65 649.44 489.27 647.80 495.91 647.01&#10;  C 499.01 646.64 502.10 645.05 505.29 644.52&#10;  C 510.70 643.62 515.63 641.58 520.20 640.19&#10;  Q 523.38 639.23 526.92 635.83&#10;  Q 528.73 634.09 531.80 632.52&#10;  Q 539.12 628.75 540.87 627.90&#10;  Q 545.98 625.41 548.28 622.92&#10;  C 552.86 617.97 556.97 611.23 557.61 604.12&#10;  C 557.95 600.34 559.28 594.38 558.46 589.32&#10;  Q 556.04 574.44 554.27 565.94&#10;  Q 554.11 565.19 553.14 562.76&#10;  Q 552.22 560.44 551.38 559.89&#10;  Q 548.24 557.84 545.60 554.98&#10;  C 542.62 551.76 538.64 551.00 534.40 549.74&#10;  C 529.03 548.14 525.66 546.47 526.83 540.26&#10;  Q 527.11 538.77 529.41 537.70&#10;  Q 530.56 537.15 532.71 537.68&#10;  Q 536.07 538.50 541.52 539.17&#10;  C 543.79 539.46 546.51 541.51 549.02 542.11&#10;  Q 554.29 543.37 558.19 545.26&#10;  C 561.28 546.76 563.60 547.07 567.81 548.15&#10;  Q 571.81 549.17 575.25 549.41&#10;  Q 589.01 550.36 601.14 550.75&#10;  C 605.92 550.90 612.16 549.83 616.75 550.24&#10;  Q 620.69 550.60 625.23 549.77&#10;  C 633.78 548.21 642.63 546.72 650.20 543.00&#10;  Q 653.10 541.57 656.50 540.38&#10;  Q 661.89 538.49 663.38 537.41&#10;  Q 668.15 533.95 671.99 531.61&#10;  Q 675.36 529.56 677.72 527.01&#10;  Q 682.32 522.04 687.57 517.68&#10;  C 689.78 515.85 692.06 512.03 692.93 509.91&#10;  Q 694.39 506.35 696.72 502.71&#10;  Q 700.54 496.75 700.58 496.68&#10;  Q 702.63 493.09 704.80 489.59&#10;  Q 707.31 485.53 710.75 474.07&#10;  Q 710.80 473.93 712.23 468.70&#10;  Q 713.13 465.41 713.49 461.50&#10;  Q 715.72 437.27 714.00 415.03&#10;  C 713.84 413.04 713.13 410.61 713.06 408.66&#10;  Q 712.81 401.36 711.59 397.94&#10;  Q 708.79 390.10 707.93 386.31&#10;  Q 707.13 382.80 705.20 379.36&#10;  C 701.80 373.31 697.80 364.35 692.41 357.02&#10;  Q 690.87 354.93 689.42 352.33&#10;  Q 687.05 348.05 686.44 347.56&#10;  Q 681.54 343.57 680.39 341.42&#10;  Q 678.31 337.58 677.17 336.54&#10;  Q 672.87 332.63 663.72 325.98&#10;  Q 660.37 323.55 656.37 321.90&#10;  C 651.14 319.75 647.14 318.47 645.32 316.99&#10;  Q 640.45 313.02 637.19 311.68&#10;  Q 631.56 309.35 627.34 308.38&#10;  Q 623.00 307.37 620.45 306.43&#10;  Q 615.60 304.65 613.35 304.30&#10;  C 608.87 303.59 602.50 301.76 597.83 301.85&#10;  Q 594.15 301.92 590.47 301.80&#10;  C 589.40 301.77 588.85 302.09 587.72 302.52&#10;  Q 587.25 302.70 586.76 302.60&#10;  Q 583.59 301.97 579.78 302.61&#10;  C 579.30 302.69 578.48 302.55 577.93 302.27&#10;  A 0.91 0.91 0.0 0 0 577.04 302.29&#10;  Q 572.68 304.82 569.45 306.00&#10;  C 563.31 308.25 559.41 311.00 554.04 315.53&#10;  Q 551.76 317.46 549.23 315.94"/>
<path stroke="#d9d9d9" d="&#10;  M 549.23 315.94&#10;  C 546.62 314.02 543.89 312.16 542.98 308.80&#10;  A 1.45 1.44 69.1 0 1 543.72 307.14&#10;  Q 550.36 303.77 554.10 298.34&#10;  C 555.31 296.59 556.89 295.74 558.30 294.50&#10;  Q 559.31 293.62 560.33 290.84&#10;  Q 562.10 286.03 563.33 284.40&#10;  C 565.25 281.86 564.38 279.10 565.90 276.56&#10;  Q 566.81 275.04 566.90 272.30&#10;  Q 567.11 265.38 566.38 255.63&#10;  Q 565.91 249.35 564.81 245.53&#10;  Q 564.29 243.75 561.05 239.99&#10;  C 559.43 238.11 558.50 235.28 556.57 233.70&#10;  Q 551.39 229.44 545.90 227.40&#10;  C 543.74 226.59 542.27 224.55 540.58 224.04&#10;  Q 523.13 218.84 505.02 222.59&#10;  Q 495.51 224.56 486.54 230.30&#10;  Q 478.67 235.34 476.85 236.52&#10;  A 3.75 3.69 84.6 0 0 475.40 238.30&#10;  Q 472.21 246.47 468.01 253.66&#10;  C 466.18 256.80 465.73 258.46 466.80 261.75&#10;  A 0.94 0.93 -5.4 0 1 465.79 262.96&#10;  C 461.22 262.39 457.68 259.34 453.20 259.19&#10;  Q 447.79 259.00 444.89 259.06&#10;  C 443.27 259.10 442.02 258.43 440.90 257.40&#10;  C 439.13 255.76 435.32 255.45 432.96 255.63&#10;  Q 430.37 255.82 428.29 255.31&#10;  Q 419.39 253.10 416.72 253.08&#10;  Q 399.80 252.94 396.40 252.87&#10;  C 393.83 252.82 391.55 253.62 388.88 253.34&#10;  Q 377.46 252.16 366.15 252.91&#10;  C 364.22 253.04 362.49 254.24 360.52 254.45&#10;  Q 357.52 254.78 352.74 255.96&#10;  Q 351.82 256.19 347.17 256.01&#10;  C 345.33 255.94 344.40 256.80 342.59 256.35&#10;  Q 342.08 256.22 341.62 256.48&#10;  C 340.65 257.01 339.77 258.18 338.71 258.54&#10;  Q 337.06 259.10 334.55 259.02&#10;  A 0.51 0.51 0.0 0 1 334.10 258.32&#10;  L 334.67 256.90&#10;  Q 334.86 256.45 334.68 255.99&#10;  Q 333.12 251.86 333.03 249.99&#10;  C 332.91 247.51 332.93 245.54 331.59 243.30&#10;  C 329.38 239.62 328.04 236.39 325.59 231.79&#10;  Q 324.37 229.48 322.95 228.32&#10;  C 319.91 225.84 317.32 222.23 313.67 220.62&#10;  C 309.30 218.68 306.53 216.99 302.58 216.43&#10;  Q 297.62 215.73 286.80 213.89&#10;  Q 286.05 213.76 280.96 213.73&#10;  C 277.02 213.71 274.26 214.94 269.51 216.22&#10;  Q 264.57 217.56 260.63 219.62&#10;  Q 258.03 220.99 246.75 230.21&#10;  Q 243.74 232.67 242.35 234.39&#10;  C 238.50 239.17 237.04 244.52 235.72 250.46&#10;  C 235.12 253.17 234.05 255.27 233.12 257.41&#10;  C 232.45 258.95 232.78 260.18 233.00 262.01&#10;  Q 233.06 262.50 232.86 262.95&#10;  Q 230.50 268.19 232.53 273.31&#10;  Q 235.86 281.70 241.15 288.89&#10;  C 244.79 293.84 249.98 296.02 255.81 297.36&#10;  C 256.98 297.63 258.55 297.56 259.60 297.38&#10;  Q 262.40 296.91 260.44 298.96&#10;  Q 258.62 300.88 256.62 303.38&#10;  Q 254.14 306.48 248.73 309.41"/>
<path stroke="#f4f4f4" d="&#10;  M 549.23 315.94&#10;  Q 548.58 317.41 547.50 318.41&#10;  A 1.54 1.51 -71.0 0 1 546.76 318.78&#10;  L 544.60 319.17&#10;  A 0.83 0.82 -89.5 0 0 543.94 319.82&#10;  Q 543.40 322.48 543.16 323.47&#10;  C 541.84 328.76 535.77 332.44 532.64 336.57&#10;  Q 530.36 339.58 527.97 341.01&#10;  Q 525.43 342.55 519.48 347.16&#10;  C 517.09 349.01 514.22 350.17 511.08 351.69&#10;  Q 508.32 353.03 504.99 355.50&#10;  Q 499.92 359.27 494.49 362.51&#10;  C 492.47 363.72 490.47 364.09 488.31 364.69&#10;  C 486.08 365.31 483.67 367.22 481.07 368.30&#10;  Q 479.04 369.14 478.79 371.51"/>
<path stroke="#cdcdcd" d="&#10;  M 478.79 371.51&#10;  C 478.53 368.44 477.41 365.79 477.52 362.82&#10;  Q 477.68 358.18 478.02 356.89&#10;  Q 478.67 354.42 478.07 351.68&#10;  Q 477.65 349.72 477.59 345.00&#10;  Q 477.52 339.40 476.39 331.72&#10;  C 475.87 328.19 474.23 326.43 473.04 323.73&#10;  C 470.14 317.15 461.58 318.31 456.19 320.09&#10;  Q 455.72 320.25 455.51 320.70&#10;  Q 454.42 323.02 451.81 327.09&#10;  Q 450.15 329.70 450.38 333.98&#10;  Q 450.63 338.36 448.16 342.47&#10;  Q 447.90 342.91 447.92 343.41&#10;  Q 448.06 346.91 447.45 350.07&#10;  Q 446.68 354.06 446.76 356.57&#10;  Q 447.00 364.10 446.79 374.48&#10;  Q 446.78 375.03 446.49 375.50&#10;  C 445.32 377.35 447.14 378.49 447.37 380.31&#10;  Q 447.50 381.33 447.38 382.32"/>
<path stroke="#f4f4f4" d="&#10;  M 447.38 382.32&#10;  Q 445.62 380.94 443.10 380.42&#10;  Q 442.62 380.32 442.27 380.67&#10;  L 440.05 382.89&#10;  Q 439.72 383.22 439.29 383.06&#10;  Q 437.34 382.34 436.12 384.91&#10;  Q 435.92 385.33 435.46 385.42&#10;  L 429.83 386.44&#10;  Q 429.37 386.52 428.98 386.29&#10;  Q 427.65 385.50 426.19 385.53"/>
<path stroke="#cdcdcd" d="&#10;  M 426.19 385.53&#10;  C 425.50 380.15 420.35 374.60 415.99 372.43&#10;  Q 414.38 371.63 408.78 369.93&#10;  Q 404.89 368.75 401.21 368.93&#10;  C 395.96 369.18 391.04 369.29 388.57 371.07&#10;  C 386.27 372.71 383.19 374.25 381.52 376.13&#10;  Q 377.59 380.56 378.23 387.27"/>
<path stroke="#f4f4f4" d="&#10;  M 378.23 387.27&#10;  Q 374.81 386.02 372.15 386.10&#10;  C 367.71 386.25 364.11 386.83 361.62 382.72"/>
<path stroke="#cdcdcd" d="&#10;  M 361.62 382.72&#10;  Q 363.49 378.69 363.29 374.99&#10;  Q 363.03 370.07 363.31 366.14&#10;  Q 363.89 357.80 363.91 357.34&#10;  C 364.07 351.77 364.77 346.93 364.43 341.89&#10;  Q 363.89 333.75 363.85 332.35&#10;  C 363.76 329.43 363.23 320.84 360.72 319.03&#10;  C 359.11 317.86 357.82 316.04 356.39 315.39&#10;  C 354.10 314.34 349.93 312.74 347.90 314.01&#10;  C 346.06 315.17 344.63 315.53 343.05 317.31&#10;  C 341.62 318.90 338.94 320.73 338.12 323.33&#10;  Q 336.68 327.84 335.81 333.03&#10;  Q 335.76 333.32 335.19 334.79&#10;  Q 334.82 335.75 335.19 336.81&#10;  Q 335.35 337.28 335.25 337.77&#10;  Q 334.00 344.11 333.98 345.00&#10;  C 333.81 352.33 333.05 359.70 333.27 366.96&#10;  Q 333.40 371.58 333.50 376.38"/>
<path stroke="#f4f4f4" d="&#10;  M 333.50 376.38&#10;  Q 331.78 376.03 330.17 374.87&#10;  Q 327.67 373.05 327.23 372.80&#10;  Q 318.61 367.93 309.50 364.04&#10;  C 307.71 363.28 305.05 361.75 303.90 360.38&#10;  Q 298.51 354.03 291.89 349.21&#10;  Q 289.86 347.73 286.22 344.26&#10;  Q 282.80 340.99 278.55 339.03&#10;  C 274.64 337.23 272.71 333.48 269.81 331.00&#10;  Q 266.23 327.95 263.39 323.74&#10;  Q 261.44 320.86 260.83 320.39&#10;  C 257.53 317.84 255.38 314.52 251.87 312.07&#10;  Q 250.17 310.88 248.73 309.41"/>
<path stroke="#d8d8d8" d="&#10;  M 333.50 376.38&#10;  Q 334.43 379.77 336.26 383.00&#10;  C 337.73 385.61 339.42 386.27 342.15 387.01&#10;  Q 349.08 388.88 355.04 386.48&#10;  C 356.69 385.81 357.93 385.61 359.28 385.39&#10;  A 1.21 1.19 12.9 0 0 360.07 384.90&#10;  L 361.62 382.72"/>
<path stroke="#d8d8d8" d="&#10;  M 378.23 387.27&#10;  Q 380.87 391.66 382.25 392.75&#10;  C 384.58 394.60 389.54 396.41 394.00 397.71&#10;  C 396.83 398.53 399.85 400.15 402.93 400.11&#10;  C 406.35 400.06 417.96 399.96 420.37 397.62&#10;  C 424.31 393.81 426.35 391.35 426.19 385.53"/>
<path stroke="#d8d8d8" d="&#10;  M 447.38 382.32&#10;  Q 449.34 386.40 452.62 389.89&#10;  C 456.14 393.63 461.13 395.00 466.04 393.20&#10;  C 470.56 391.56 472.13 389.83 474.97 385.91&#10;  C 477.94 381.79 478.65 376.46 478.79 371.51"/>
<path stroke="#e4e4e4" d="&#10;  M 574.00 354.19&#10;  C 570.49 353.38 568.62 356.06 566.80 357.56&#10;  C 564.40 359.53 563.09 362.06 561.25 364.01&#10;  C 559.57 365.79 557.28 370.63 557.15 372.18&#10;  Q 556.80 376.44 558.05 381.87&#10;  Q 558.49 383.79 560.38 385.46&#10;  C 563.22 387.99 565.67 393.05 569.11 395.86&#10;  Q 572.33 398.50 574.26 400.31&#10;  Q 575.79 401.76 579.87 404.09&#10;  Q 582.17 405.41 586.18 406.13&#10;  Q 598.49 408.34 605.85 408.20&#10;  C 614.84 408.03 625.11 411.38 633.05 406.50&#10;  Q 634.41 405.67 635.78 405.28&#10;  Q 644.36 402.86 651.77 400.04&#10;  C 654.51 399.00 655.40 397.09 657.34 394.78&#10;  C 659.73 391.93 662.00 385.18 660.26 382.02&#10;  Q 657.97 377.86 656.28 372.53&#10;  C 655.21 369.15 652.44 369.58 651.04 368.06&#10;  Q 644.50 360.98 643.19 360.13&#10;  Q 639.78 357.91 630.92 355.40&#10;  Q 624.45 353.56 617.85 352.12&#10;  Q 615.04 351.50 612.09 351.60&#10;  Q 609.53 351.68 604.28 350.27&#10;  C 603.53 350.07 602.70 349.83 601.56 350.04&#10;  Q 596.11 351.08 592.66 350.89&#10;  C 589.07 350.69 585.51 351.72 582.13 351.01&#10;  A 1.66 1.60 38.7 0 0 581.15 351.10&#10;  Q 578.02 352.47 575.75 353.74&#10;  Q 574.67 354.35 574.00 354.19"/>
<path stroke="#e4e4e4" d="&#10;  M 148.50 387.63&#10;  Q 148.73 388.34 148.98 392.08&#10;  C 149.43 398.95 156.21 405.03 162.01 407.93&#10;  C 164.23 409.04 167.05 409.34 170.53 410.04&#10;  C 176.26 411.21 183.42 410.89 188.60 410.95&#10;  C 191.42 410.99 193.60 411.98 196.12 412.34&#10;  A 1.04 1.02 26.2 0 0 196.99 412.05&#10;  L 197.33 411.71&#10;  A 0.87 0.86 32.5 0 1 198.24 411.51&#10;  Q 202.49 413.14 206.82 411.78&#10;  Q 211.09 410.43 211.92 410.27&#10;  C 217.02 409.25 222.28 407.85 226.56 404.90&#10;  Q 228.42 403.61 231.18 402.66&#10;  Q 238.27 400.22 241.70 397.41&#10;  Q 247.21 392.90 248.83 391.63&#10;  A 4.10 4.06 -15.1 0 0 250.33 389.05&#10;  Q 250.81 385.88 251.43 383.92&#10;  Q 252.23 381.37 251.62 379.19&#10;  Q 249.72 372.35 246.66 368.19&#10;  C 244.47 365.22 241.02 362.80 238.48 360.25&#10;  Q 236.61 358.39 234.52 356.98&#10;  C 232.79 355.82 229.30 352.95 227.01 352.70&#10;  Q 221.14 352.08 214.96 350.68&#10;  Q 212.28 350.08 209.02 351.18&#10;  Q 208.10 351.49 207.00 350.73&#10;  A 1.02 0.99 56.3 0 0 206.24 350.57&#10;  L 197.72 352.12&#10;  Q 197.18 352.21 196.67 352.04&#10;  Q 194.74 351.39 193.66 352.64&#10;  A 1.16 1.16 0.0 0 1 192.71 353.03&#10;  Q 188.86 352.76 185.50 353.25&#10;  Q 178.53 354.26 175.27 354.62&#10;  Q 172.70 354.90 170.53 356.30&#10;  Q 164.76 360.03 163.69 360.95&#10;  Q 159.56 364.49 154.92 370.64&#10;  Q 150.81 376.07 150.13 378.66&#10;  Q 148.96 383.08 147.66 386.33&#10;  Q 147.58 386.54 147.73 386.69&#10;  L 148.25 387.21&#10;  A 1.00 0.97 15.3 0 1 148.50 387.63"/>
<path stroke="#d8d8d8" d="&#10;  M 369.83 419.87&#10;  Q 369.74 419.73 369.58 419.69&#10;  Q 369.35 419.63 368.93 419.81&#10;  Q 365.92 421.13 362.21 423.80&#10;  A 2.01 2.00 -57.5 0 1 360.69 424.14&#10;  L 354.05 422.94&#10;  Q 353.55 422.85 353.12 423.12&#10;  Q 347.39 426.61 344.21 421.03&#10;  Q 343.97 420.60 344.05 420.11&#10;  C 344.73 416.43 346.44 415.46 348.48 413.55&#10;  C 352.18 410.08 352.41 405.04 348.32 401.82&#10;  C 346.45 400.36 345.52 399.55 343.27 400.01&#10;  C 336.20 401.43 332.05 405.81 327.43 411.42&#10;  Q 324.36 415.15 323.93 416.79&#10;  Q 323.46 418.59 323.58 421.71&#10;  C 323.71 425.05 323.66 428.60 325.94 432.60&#10;  Q 326.93 434.34 330.26 437.05&#10;  Q 332.79 439.12 335.19 440.82&#10;  C 340.66 444.72 344.92 444.38 349.82 445.19&#10;  C 354.90 446.03 360.96 443.46 366.18 442.36&#10;  C 368.65 441.84 370.79 440.07 373.49 439.40&#10;  C 380.56 437.65 386.62 433.91 393.04 429.78&#10;  Q 393.47 429.51 393.96 429.64&#10;  C 402.45 431.97 407.71 433.17 413.53 436.48&#10;  Q 416.85 438.37 419.41 439.34&#10;  Q 430.80 443.63 431.37 443.84&#10;  Q 434.04 444.84 436.01 444.75&#10;  C 439.32 444.60 441.86 443.55 445.17 444.45&#10;  Q 447.19 445.00 450.73 445.21&#10;  C 453.37 445.37 456.46 446.83 459.09 446.27&#10;  Q 462.90 445.45 466.97 443.81&#10;  C 469.42 442.83 471.10 440.65 473.37 438.35&#10;  Q 476.30 435.40 477.35 433.43&#10;  Q 480.84 426.83 479.75 418.99&#10;  Q 478.90 412.93 474.20 408.78&#10;  Q 473.43 408.10 468.14 406.49&#10;  C 466.90 406.12 466.18 405.64 464.91 404.89&#10;  A 1.54 1.52 57.7 0 0 463.96 404.67&#10;  Q 462.47 404.83 461.26 405.86&#10;  Q 460.87 406.20 460.37 406.34&#10;  Q 456.22 407.51 457.35 412.09&#10;  Q 457.48 412.60 457.39 413.12&#10;  L 457.18 414.26&#10;  A 1.66 1.66 0.0 0 0 457.64 415.72&#10;  L 462.28 420.36&#10;  A 1.59 1.58 41.0 0 1 462.43 422.42&#10;  C 460.78 424.63 458.02 426.56 454.98 425.79&#10;  C 452.55 425.18 449.50 425.89 447.06 424.46&#10;  Q 446.57 424.17 446.21 424.61&#10;  Q 445.07 426.02 443.60 425.06&#10;  Q 443.17 424.79 442.66 424.80&#10;  C 441.10 424.83 439.89 424.92 438.32 424.41&#10;  C 434.59 423.18 432.05 422.69 429.24 421.09&#10;  C 426.52 419.55 424.76 418.62 421.94 417.81&#10;  C 419.25 417.04 416.38 415.73 414.78 415.10&#10;  Q 402.00 410.09 401.96 410.07&#10;  C 397.53 408.28 394.10 409.71 390.45 410.25&#10;  Q 387.59 410.67 385.76 411.52&#10;  Q 381.35 413.55 376.13 417.61&#10;  Q 373.95 419.31 370.42 420.11&#10;  Q 370.04 420.20 369.83 419.87"/>
<path stroke="#e4e4e4" d="&#10;  M 466.90 554.09&#10;  C 465.90 552.25 466.27 549.27 463.89 548.40&#10;  C 459.66 546.87 454.43 548.75 450.72 552.03&#10;  Q 449.65 552.97 447.64 554.27&#10;  Q 444.58 556.24 444.25 557.02&#10;  Q 442.26 561.61 441.13 563.80&#10;  C 438.69 568.54 439.85 573.48 438.11 577.76&#10;  C 437.46 579.38 438.03 582.69 438.17 584.54&#10;  Q 438.33 586.67 439.28 588.52&#10;  C 440.96 591.81 443.84 598.37 447.93 599.36&#10;  Q 453.73 600.77 458.98 603.55&#10;  C 460.73 604.48 463.69 605.58 465.15 605.86&#10;  Q 466.75 606.16 468.96 605.10&#10;  A 1.71 1.69 35.2 0 1 469.91 604.94&#10;  C 475.90 605.70 479.13 606.54 483.44 603.70&#10;  C 486.34 601.79 488.02 599.22 490.94 597.61&#10;  C 494.13 595.85 497.20 592.66 499.24 588.84&#10;  Q 500.45 586.58 503.84 582.62&#10;  C 506.37 579.66 503.22 576.47 501.11 574.77&#10;  C 497.61 571.93 490.99 574.40 488.10 577.09&#10;  C 485.06 579.91 482.34 581.38 479.78 583.27&#10;  C 475.72 586.26 472.44 587.38 467.61 586.75&#10;  C 464.90 586.39 461.32 584.67 459.34 584.01&#10;  C 454.09 582.25 456.04 575.24 457.16 571.22&#10;  C 458.01 568.17 461.47 566.00 462.92 563.21&#10;  Q 465.41 558.39 466.94 555.02&#10;  Q 467.16 554.55 466.90 554.09"/>
<path stroke="#e4e4e4" d="&#10;  M 343.69 573.66&#10;  A 0.65 0.65 0.0 0 1 343.40 574.41&#10;  C 340.76 575.96 338.90 578.00 336.05 579.25&#10;  Q 330.76 581.55 330.59 581.60&#10;  Q 325.97 582.77 321.54 581.65&#10;  C 320.06 581.27 319.26 580.39 317.98 579.28&#10;  C 316.14 577.69 312.83 576.48 311.78 575.10&#10;  Q 309.63 572.30 308.40 569.32&#10;  Q 307.05 566.03 305.47 564.92&#10;  Q 302.07 562.54 298.05 564.68&#10;  C 296.91 565.29 295.71 565.61 295.35 567.08&#10;  Q 294.96 568.66 294.19 574.63&#10;  C 293.43 580.44 298.47 588.58 303.20 592.06&#10;  Q 310.11 597.13 314.97 598.50&#10;  Q 320.95 600.18 324.49 601.12&#10;  A 1.16 1.12 -8.9 0 1 325.16 601.59&#10;  Q 325.36 601.88 325.66 602.04&#10;  Q 325.81 602.13 326.49 601.98&#10;  Q 331.59 600.91 336.57 599.60&#10;  C 338.48 599.09 340.32 598.00 341.75 597.30&#10;  Q 343.38 596.50 345.74 595.90&#10;  Q 349.20 595.03 350.37 594.10&#10;  Q 358.63 587.50 362.44 577.77&#10;  C 363.68 574.59 364.38 567.00 362.43 564.56&#10;  Q 359.04 560.34 357.53 557.59&#10;  Q 356.33 555.41 354.50 554.64&#10;  Q 348.79 552.24 343.06 554.44&#10;  Q 340.36 555.48 339.90 557.21&#10;  C 338.90 560.99 339.40 567.59 342.50 571.34&#10;  Q 343.28 572.29 343.69 573.66"/>
</g>
<path fill="#c9c9c9" d="&#10;  M 800.00 0.00&#10;  L 800.00 800.00&#10;  L 0.00 800.00&#10;  L 0.00 0.00&#10;  L 800.00 0.00&#10;  Z&#10;  M 248.73 309.41&#10;  Q 239.43 307.41 230.09 305.45&#10;  Q 224.67 304.31 222.36 304.44&#10;  Q 218.90 304.65 214.52 304.88&#10;  C 212.51 304.99 211.18 303.63 209.48 303.65&#10;  C 205.84 303.70 201.38 305.27 199.06 305.89&#10;  C 194.81 307.03 191.32 307.12 186.67 307.54&#10;  Q 183.28 307.85 180.85 309.00&#10;  C 177.25 310.70 172.84 311.69 168.96 313.69&#10;  Q 168.43 313.96 158.42 318.91&#10;  Q 152.98 321.60 147.94 326.33&#10;  Q 144.15 329.89 142.25 331.31&#10;  Q 137.90 334.59 136.45 336.20&#10;  Q 132.89 340.13 130.35 342.12&#10;  C 127.31 344.49 126.25 346.31 124.70 349.23&#10;  Q 124.47 349.68 124.03 349.92&#10;  C 118.69 352.80 117.37 357.26 115.20 362.49&#10;  Q 114.48 364.20 113.28 365.60&#10;  C 111.19 368.02 110.19 369.40 109.74 372.46&#10;  C 109.43 374.57 108.12 375.80 106.84 376.85&#10;  Q 105.32 378.09 104.54 382.49&#10;  Q 102.46 394.19 100.79 399.61&#10;  Q 99.35 404.27 99.21 405.63&#10;  Q 98.93 408.36 97.46 411.50&#10;  Q 96.10 414.40 95.09 418.96&#10;  Q 94.98 419.47 95.19 419.96&#10;  Q 96.07 421.98 95.15 423.85&#10;  A 1.49 1.48 -37.0 0 0 95.02 424.75&#10;  Q 95.83 429.36 95.44 433.81&#10;  Q 94.89 439.88 95.18 442.05&#10;  Q 95.83 446.98 96.35 453.52&#10;  C 96.49 455.37 97.75 458.19 97.00 460.39&#10;  Q 96.84 460.89 97.06 461.36&#10;  Q 98.12 463.63 97.70 466.79&#10;  A 1.95 1.91 -52.9 0 0 97.83 467.79&#10;  Q 98.68 469.91 98.64 471.49&#10;  C 98.54 475.43 101.44 476.53 101.88 480.43&#10;  Q 102.01 481.54 102.61 482.78&#10;  Q 107.58 493.06 112.71 503.28&#10;  C 113.53 504.91 116.56 506.87 117.97 508.68&#10;  C 121.59 513.34 126.11 519.07 131.61 523.60&#10;  Q 133.93 525.51 135.74 527.83&#10;  Q 138.43 531.28 139.81 531.97&#10;  C 144.70 534.41 147.25 536.14 151.75 537.57&#10;  C 155.95 538.91 160.66 542.15 164.26 543.71&#10;  Q 167.13 544.95 170.24 546.31&#10;  Q 171.30 546.77 176.02 547.67&#10;  Q 194.77 551.24 204.77 552.36&#10;  C 209.22 552.86 214.37 551.09 219.56 552.94&#10;  C 221.47 553.61 223.72 553.87 225.95 553.17&#10;  C 229.12 552.18 233.36 552.94 236.75 553.09&#10;  C 241.36 553.28 244.24 552.75 248.69 551.00&#10;  Q 253.70 549.03 255.45 548.58&#10;  Q 257.75 547.99 261.52 546.06&#10;  C 263.75 544.92 270.27 542.83 272.82 544.24&#10;  C 276.20 546.11 277.81 552.75 272.85 554.05&#10;  C 266.12 555.82 263.71 559.85 259.49 564.24&#10;  Q 257.69 566.10 257.39 567.18&#10;  Q 255.41 574.12 252.42 580.67&#10;  Q 251.52 582.66 249.71 590.98&#10;  Q 249.05 594.04 248.35 596.73&#10;  C 246.92 602.23 246.27 604.50 247.74 609.54&#10;  C 248.95 613.66 253.26 618.75 255.51 622.25&#10;  Q 256.94 624.47 262.58 628.48&#10;  C 264.88 630.11 268.20 631.17 271.52 632.70&#10;  C 278.46 635.88 286.29 637.86 293.48 638.79&#10;  C 298.00 639.38 301.55 640.46 307.20 641.61&#10;  C 310.27 642.23 312.84 643.25 315.68 644.64&#10;  C 317.89 645.72 321.66 646.47 323.75 646.51&#10;  C 333.56 646.72 340.71 646.82 348.99 648.77&#10;  Q 355.81 650.38 360.24 650.85&#10;  Q 365.27 651.39 377.38 653.42&#10;  Q 380.20 653.89 383.33 653.66&#10;  C 388.76 653.26 393.27 654.10 398.59 654.05&#10;  Q 405.08 654.00 407.91 654.24&#10;  Q 410.12 654.42 417.50 655.14&#10;  Q 421.40 655.52 429.25 654.40&#10;  C 438.88 653.02 448.89 652.80 455.31 652.57&#10;  Q 461.11 652.36 466.18 651.23&#10;  Q 468.95 650.61 475.45 650.06&#10;  C 482.65 649.44 489.27 647.80 495.91 647.01&#10;  C 499.01 646.64 502.10 645.05 505.29 644.52&#10;  C 510.70 643.62 515.63 641.58 520.20 640.19&#10;  Q 523.38 639.23 526.92 635.83&#10;  Q 528.73 634.09 531.80 632.52&#10;  Q 539.12 628.75 540.87 627.90&#10;  Q 545.98 625.41 548.28 622.92&#10;  C 552.86 617.97 556.97 611.23 557.61 604.12&#10;  C 557.95 600.34 559.28 594.38 558.46 589.32&#10;  Q 556.04 574.44 554.27 565.94&#10;  Q 554.11 565.19 553.14 562.76&#10;  Q 552.22 560.44 551.38 559.89&#10;  Q 548.24 557.84 545.60 554.98&#10;  C 542.62 551.76 538.64 551.00 534.40 549.74&#10;  C 529.03 548.14 525.66 546.47 526.83 540.26&#10;  Q 527.11 538.77 529.41 537.70&#10;  Q 530.56 537.15 532.71 537.68&#10;  Q 536.07 538.50 541.52 539.17&#10;  C 543.79 539.46 546.51 541.51 549.02 542.11&#10;  Q 554.29 543.37 558.19 545.26&#10;  C 561.28 546.76 563.60 547.07 567.81 548.15&#10;  Q 571.81 549.17 575.25 549.41&#10;  Q 589.01 550.36 601.14 550.75&#10;  C 605.92 550.90 612.16 549.83 616.75 550.24&#10;  Q 620.69 550.60 625.23 549.77&#10;  C 633.78 548.21 642.63 546.72 650.20 543.00&#10;  Q 653.10 541.57 656.50 540.38&#10;  Q 661.89 538.49 663.38 537.41&#10;  Q 668.15 533.95 671.99 531.61&#10;  Q 675.36 529.56 677.72 527.01&#10;  Q 682.32 522.04 687.57 517.68&#10;  C 689.78 515.85 692.06 512.03 692.93 509.91&#10;  Q 694.39 506.35 696.72 502.71&#10;  Q 700.54 496.75 700.58 496.68&#10;  Q 702.63 493.09 704.80 489.59&#10;  Q 707.31 485.53 710.75 474.07&#10;  Q 710.80 473.93 712.23 468.70&#10;  Q 713.13 465.41 713.49 461.50&#10;  Q 715.72 437.27 714.00 415.03&#10;  C 713.84 413.04 713.13 410.61 713.06 408.66&#10;  Q 712.81 401.36 711.59 397.94&#10;  Q 708.79 390.10 707.93 386.31&#10;  Q 707.13 382.80 705.20 379.36&#10;  C 701.80 373.31 697.80 364.35 692.41 357.02&#10;  Q 690.87 354.93 689.42 352.33&#10;  Q 687.05 348.05 686.44 347.56&#10;  Q 681.54 343.57 680.39 341.42&#10;  Q 678.31 337.58 677.17 336.54&#10;  Q 672.87 332.63 663.72 325.98&#10;  Q 660.37 323.55 656.37 321.90&#10;  C 651.14 319.75 647.14 318.47 645.32 316.99&#10;  Q 640.45 313.02 637.19 311.68&#10;  Q 631.56 309.35 627.34 308.38&#10;  Q 623.00 307.37 620.45 306.43&#10;  Q 615.60 304.65 613.35 304.30&#10;  C 608.87 303.59 602.50 301.76 597.83 301.85&#10;  Q 594.15 301.92 590.47 301.80&#10;  C 589.40 301.77 588.85 302.09 587.72 302.52&#10;  Q 587.25 302.70 586.76 302.60&#10;  Q 583.59 301.97 579.78 302.61&#10;  C 579.30 302.69 578.48 302.55 577.93 302.27&#10;  A 0.91 0.91 0.0 0 0 577.04 302.29&#10;  Q 572.68 304.82 569.45 306.00&#10;  C 563.31 308.25 559.41 311.00 554.04 315.53&#10;  Q 551.76 317.46 549.23 315.94&#10;  C 546.62 314.02 543.89 312.16 542.98 308.80&#10;  A 1.45 1.44 69.1 0 1 543.72 307.14&#10;  Q 550.36 303.77 554.10 298.34&#10;  C 555.31 296.59 556.89 295.74 558.30 294.50&#10;  Q 559.31 293.62 560.33 290.84&#10;  Q 562.10 286.03 563.33 284.40&#10;  C 565.25 281.86 564.38 279.10 565.90 276.56&#10;  Q 566.81 275.04 566.90 272.30&#10;  Q 567.11 265.38 566.38 255.63&#10;  Q 565.91 249.35 564.81 245.53&#10;  Q 564.29 243.75 561.05 239.99&#10;  C 559.43 238.11 558.50 235.28 556.57 233.70&#10;  Q 551.39 229.44 545.90 227.40&#10;  C 543.74 226.59 542.27 224.55 540.58 224.04&#10;  Q 523.13 218.84 505.02 222.59&#10;  Q 495.51 224.56 486.54 230.30&#10;  Q 478.67 235.34 476.85 236.52&#10;  A 3.75 3.69 84.6 0 0 475.40 238.30&#10;  Q 472.21 246.47 468.01 253.66&#10;  C 466.18 256.80 465.73 258.46 466.80 261.75&#10;  A 0.94 0.93 -5.4 0 1 465.79 262.96&#10;  C 461.22 262.39 457.68 259.34 453.20 259.19&#10;  Q 447.79 259.00 444.89 259.06&#10;  C 443.27 259.10 442.02 258.43 440.90 257.40&#10;  C 439.13 255.76 435.32 255.45 432.96 255.63&#10;  Q 430.37 255.82 428.29 255.31&#10;  Q 419.39 253.10 416.72 253.08&#10;  Q 399.80 252.94 396.40 252.87&#10;  C 393.83 252.82 391.55 253.62 388.88 253.34&#10;  Q 377.46 252.16 366.15 252.91&#10;  C 364.22 253.04 362.49 254.24 360.52 254.45&#10;  Q 357.52 254.78 352.74 255.96&#10;  Q 351.82 256.19 347.17 256.01&#10;  C 345.33 255.94 344.40 256.80 342.59 256.35&#10;  Q 342.08 256.22 341.62 256.48&#10;  C 340.65 257.01 339.77 258.18 338.71 258.54&#10;  Q 337.06 259.10 334.55 259.02&#10;  A 0.51 0.51 0.0 0 1 334.10 258.32&#10;  L 334.67 256.90&#10;  Q 334.86 256.45 334.68 255.99&#10;  Q 333.12 251.86 333.03 249.99&#10;  C 332.91 247.51 332.93 245.54 331.59 243.30&#10;  C 329.38 239.62 328.04 236.39 325.59 231.79&#10;  Q 324.37 229.48 322.95 228.32&#10;  C 319.91 225.84 317.32 222.23 313.67 220.62&#10;  C 309.30 218.68 306.53 216.99 302.58 216.43&#10;  Q 297.62 215.73 286.80 213.89&#10;  Q 286.05 213.76 280.96 213.73&#10;  C 277.02 213.71 274.26 214.94 269.51 216.22&#10;  Q 264.57 217.56 260.63 219.62&#10;  Q 258.03 220.99 246.75 230.21&#10;  Q 243.74 232.67 242.35 234.39&#10;  C 238.50 239.17 237.04 244.52 235.72 250.46&#10;  C 235.12 253.17 234.05 255.27 233.12 257.41&#10;  C 232.45 258.95 232.78 260.18 233.00 262.01&#10;  Q 233.06 262.50 232.86 262.95&#10;  Q 230.50 268.19 232.53 273.31&#10;  Q 235.86 281.70 241.15 288.89&#10;  C 244.79 293.84 249.98 296.02 255.81 297.36&#10;  C 256.98 297.63 258.55 297.56 259.60 297.38&#10;  Q 262.40 296.91 260.44 298.96&#10;  Q 258.62 300.88 256.62 303.38&#10;  Q 254.14 306.48 248.73 309.41&#10;  Z"/>
<path fill="#e9e9e9" d="&#10;  M 549.23 315.94&#10;  Q 548.58 317.41 547.50 318.41&#10;  A 1.54 1.51 -71.0 0 1 546.76 318.78&#10;  L 544.60 319.17&#10;  A 0.83 0.82 -89.5 0 0 543.94 319.82&#10;  Q 543.40 322.48 543.16 323.47&#10;  C 541.84 328.76 535.77 332.44 532.64 336.57&#10;  Q 530.36 339.58 527.97 341.01&#10;  Q 525.43 342.55 519.48 347.16&#10;  C 517.09 349.01 514.22 350.17 511.08 351.69&#10;  Q 508.32 353.03 504.99 355.50&#10;  Q 499.92 359.27 494.49 362.51&#10;  C 492.47 363.72 490.47 364.09 488.31 364.69&#10;  C 486.08 365.31 483.67 367.22 481.07 368.30&#10;  Q 479.04 369.14 478.79 371.51&#10;  C 478.53 368.44 477.41 365.79 477.52 362.82&#10;  Q 477.68 358.18 478.02 356.89&#10;  Q 478.67 354.42 478.07 351.68&#10;  Q 477.65 349.72 477.59 345.00&#10;  Q 477.52 339.40 476.39 331.72&#10;  C 475.87 328.19 474.23 326.43 473.04 323.73&#10;  C 470.14 317.15 461.58 318.31 456.19 320.09&#10;  Q 455.72 320.25 455.51 320.70&#10;  Q 454.42 323.02 451.81 327.09&#10;  Q 450.15 329.70 450.38 333.98&#10;  Q 450.63 338.36 448.16 342.47&#10;  Q 447.90 342.91 447.92 343.41&#10;  Q 448.06 346.91 447.45 350.07&#10;  Q 446.68 354.06 446.76 356.57&#10;  Q 447.00 364.10 446.79 374.48&#10;  Q 446.78 375.03 446.49 375.50&#10;  C 445.32 377.35 447.14 378.49 447.37 380.31&#10;  Q 447.50 381.33 447.38 382.32&#10;  Q 445.62 380.94 443.10 380.42&#10;  Q 442.62 380.32 442.27 380.67&#10;  L 440.05 382.89&#10;  Q 439.72 383.22 439.29 383.06&#10;  Q 437.34 382.34 436.12 384.91&#10;  Q 435.92 385.33 435.46 385.42&#10;  L 429.83 386.44&#10;  Q 429.37 386.52 428.98 386.29&#10;  Q 427.65 385.50 426.19 385.53&#10;  C 425.50 380.15 420.35 374.60 415.99 372.43&#10;  Q 414.38 371.63 408.78 369.93&#10;  Q 404.89 368.75 401.21 368.93&#10;  C 395.96 369.18 391.04 369.29 388.57 371.07&#10;  C 386.27 372.71 383.19 374.25 381.52 376.13&#10;  Q 377.59 380.56 378.23 387.27&#10;  Q 374.81 386.02 372.15 386.10&#10;  C 367.71 386.25 364.11 386.83 361.62 382.72&#10;  Q 363.49 378.69 363.29 374.99&#10;  Q 363.03 370.07 363.31 366.14&#10;  Q 363.89 357.80 363.91 357.34&#10;  C 364.07 351.77 364.77 346.93 364.43 341.89&#10;  Q 363.89 333.75 363.85 332.35&#10;  C 363.76 329.43 363.23 320.84 360.72 319.03&#10;  C 359.11 317.86 357.82 316.04 356.39 315.39&#10;  C 354.10 314.34 349.93 312.74 347.90 314.01&#10;  C 346.06 315.17 344.63 315.53 343.05 317.31&#10;  C 341.62 318.90 338.94 320.73 338.12 323.33&#10;  Q 336.68 327.84 335.81 333.03&#10;  Q 335.76 333.32 335.19 334.79&#10;  Q 334.82 335.75 335.19 336.81&#10;  Q 335.35 337.28 335.25 337.77&#10;  Q 334.00 344.11 333.98 345.00&#10;  C 333.81 352.33 333.05 359.70 333.27 366.96&#10;  Q 333.40 371.58 333.50 376.38&#10;  Q 331.78 376.03 330.17 374.87&#10;  Q 327.67 373.05 327.23 372.80&#10;  Q 318.61 367.93 309.50 364.04&#10;  C 307.71 363.28 305.05 361.75 303.90 360.38&#10;  Q 298.51 354.03 291.89 349.21&#10;  Q 289.86 347.73 286.22 344.26&#10;  Q 282.80 340.99 278.55 339.03&#10;  C 274.64 337.23 272.71 333.48 269.81 331.00&#10;  Q 266.23 327.95 263.39 323.74&#10;  Q 261.44 320.86 260.83 320.39&#10;  C 257.53 317.84 255.38 314.52 251.87 312.07&#10;  Q 250.17 310.88 248.73 309.41&#10;  Q 254.14 306.48 256.62 303.38&#10;  Q 258.62 300.88 260.44 298.96&#10;  Q 262.40 296.91 259.60 297.38&#10;  C 258.55 297.56 256.98 297.63 255.81 297.36&#10;  C 249.98 296.02 244.79 293.84 241.15 288.89&#10;  Q 235.86 281.70 232.53 273.31&#10;  Q 230.50 268.19 232.86 262.95&#10;  Q 233.06 262.50 233.00 262.01&#10;  C 232.78 260.18 232.45 258.95 233.12 257.41&#10;  C 234.05 255.27 235.12 253.17 235.72 250.46&#10;  C 237.04 244.52 238.50 239.17 242.35 234.39&#10;  Q 243.74 232.67 246.75 230.21&#10;  Q 258.03 220.99 260.63 219.62&#10;  Q 264.57 217.56 269.51 216.22&#10;  C 274.26 214.94 277.02 213.71 280.96 213.73&#10;  Q 286.05 213.76 286.80 213.89&#10;  Q 297.62 215.73 302.58 216.43&#10;  C 306.53 216.99 309.30 218.68 313.67 220.62&#10;  C 317.32 222.23 319.91 225.84 322.95 228.32&#10;  Q 324.37 229.48 325.59 231.79&#10;  C 328.04 236.39 329.38 239.62 331.59 243.30&#10;  C 332.93 245.54 332.91 247.51 333.03 249.99&#10;  Q 333.12 251.86 334.68 255.99&#10;  Q 334.86 256.45 334.67 256.90&#10;  L 334.10 258.32&#10;  A 0.51 0.51 0.0 0 0 334.55 259.02&#10;  Q 337.06 259.10 338.71 258.54&#10;  C 339.77 258.18 340.65 257.01 341.62 256.48&#10;  Q 342.08 256.22 342.59 256.35&#10;  C 344.40 256.80 345.33 255.94 347.17 256.01&#10;  Q 351.82 256.19 352.74 255.96&#10;  Q 357.52 254.78 360.52 254.45&#10;  C 362.49 254.24 364.22 253.04 366.15 252.91&#10;  Q 377.46 252.16 388.88 253.34&#10;  C 391.55 253.62 393.83 252.82 396.40 252.87&#10;  Q 399.80 252.94 416.72 253.08&#10;  Q 419.39 253.10 428.29 255.31&#10;  Q 430.37 255.82 432.96 255.63&#10;  C 435.32 255.45 439.13 255.76 440.90 257.40&#10;  C 442.02 258.43 443.27 259.10 444.89 259.06&#10;  Q 447.79 259.00 453.20 259.19&#10;  C 457.68 259.34 461.22 262.39 465.79 262.96&#10;  A 0.94 0.93 -5.4 0 0 466.80 261.75&#10;  C 465.73 258.46 466.18 256.80 468.01 253.66&#10;  Q 472.21 246.47 475.40 238.30&#10;  A 3.75 3.69 84.6 0 1 476.85 236.52&#10;  Q 478.67 235.34 486.54 230.30&#10;  Q 495.51 224.56 505.02 222.59&#10;  Q 523.13 218.84 540.58 224.04&#10;  C 542.27 224.55 543.74 226.59 545.90 227.40&#10;  Q 551.39 229.44 556.57 233.70&#10;  C 558.50 235.28 559.43 238.11 561.05 239.99&#10;  Q 564.29 243.75 564.81 245.53&#10;  Q 565.91 249.35 566.38 255.63&#10;  Q 567.11 265.38 566.90 272.30&#10;  Q 566.81 275.04 565.90 276.56&#10;  C 564.38 279.10 565.25 281.86 563.33 284.40&#10;  Q 562.10 286.03 560.33 290.84&#10;  Q 559.31 293.62 558.30 294.50&#10;  C 556.89 295.74 555.31 296.59 554.10 298.34&#10;  Q 550.36 303.77 543.72 307.14&#10;  A 1.45 1.44 69.1 0 0 542.98 308.80&#10;  C 543.89 312.16 546.62 314.02 549.23 315.94&#10;  Z"/>
<path fill="#ffffff" d="&#10;  M 248.73 309.41&#10;  Q 250.17 310.88 251.87 312.07&#10;  C 255.38 314.52 257.53 317.84 260.83 320.39&#10;  Q 261.44 320.86 263.39 323.74&#10;  Q 266.23 327.95 269.81 331.00&#10;  C 272.71 333.48 274.64 337.23 278.55 339.03&#10;  Q 282.80 340.99 286.22 344.26&#10;  Q 289.86 347.73 291.89 349.21&#10;  Q 298.51 354.03 303.90 360.38&#10;  C 305.05 361.75 307.71 363.28 309.50 364.04&#10;  Q 318.61 367.93 327.23 372.80&#10;  Q 327.67 373.05 330.17 374.87&#10;  Q 331.78 376.03 333.50 376.38&#10;  Q 334.43 379.77 336.26 383.00&#10;  C 337.73 385.61 339.42 386.27 342.15 387.01&#10;  Q 349.08 388.88 355.04 386.48&#10;  C 356.69 385.81 357.93 385.61 359.28 385.39&#10;  A 1.21 1.19 12.9 0 0 360.07 384.90&#10;  L 361.62 382.72&#10;  C 364.11 386.83 367.71 386.25 372.15 386.10&#10;  Q 374.81 386.02 378.23 387.27&#10;  Q 380.87 391.66 382.25 392.75&#10;  C 384.58 394.60 389.54 396.41 394.00 397.71&#10;  C 396.83 398.53 399.85 400.15 402.93 400.11&#10;  C 406.35 400.06 417.96 399.96 420.37 397.62&#10;  C 424.31 393.81 426.35 391.35 426.19 385.53&#10;  Q 427.65 385.50 428.98 386.29&#10;  Q 429.37 386.52 429.83 386.44&#10;  L 435.46 385.42&#10;  Q 435.92 385.33 436.12 384.91&#10;  Q 437.34 382.34 439.29 383.06&#10;  Q 439.72 383.22 440.05 382.89&#10;  L 442.27 380.67&#10;  Q 442.62 380.32 443.10 380.42&#10;  Q 445.62 380.94 447.38 382.32&#10;  Q 449.34 386.40 452.62 389.89&#10;  C 456.14 393.63 461.13 395.00 466.04 393.20&#10;  C 470.56 391.56 472.13 389.83 474.97 385.91&#10;  C 477.94 381.79 478.65 376.46 478.79 371.51&#10;  Q 479.04 369.14 481.07 368.30&#10;  C 483.67 367.22 486.08 365.31 488.31 364.69&#10;  C 490.47 364.09 492.47 363.72 494.49 362.51&#10;  Q 499.92 359.27 504.99 355.50&#10;  Q 508.32 353.03 511.08 351.69&#10;  C 514.22 350.17 517.09 349.01 519.48 347.16&#10;  Q 525.43 342.55 527.97 341.01&#10;  Q 530.36 339.58 532.64 336.57&#10;  C 535.77 332.44 541.84 328.76 543.16 323.47&#10;  Q 543.40 322.48 543.94 319.82&#10;  A 0.83 0.82 -89.5 0 1 544.60 319.17&#10;  L 546.76 318.78&#10;  A 1.54 1.51 -71.0 0 0 547.50 318.41&#10;  Q 548.58 317.41 549.23 315.94&#10;  Q 551.76 317.46 554.04 315.53&#10;  C 559.41 311.00 563.31 308.25 569.45 306.00&#10;  Q 572.68 304.82 577.04 302.29&#10;  A 0.91 0.91 0.0 0 1 577.93 302.27&#10;  C 578.48 302.55 579.30 302.69 579.78 302.61&#10;  Q 583.59 301.97 586.76 302.60&#10;  Q 587.25 302.70 587.72 302.52&#10;  C 588.85 302.09 589.40 301.77 590.47 301.80&#10;  Q 594.15 301.92 597.83 301.85&#10;  C 602.50 301.76 608.87 303.59 613.35 304.30&#10;  Q 615.60 304.65 620.45 306.43&#10;  Q 623.00 307.37 627.34 308.38&#10;  Q 631.56 309.35 637.19 311.68&#10;  Q 640.45 313.02 645.32 316.99&#10;  C 647.14 318.47 651.14 319.75 656.37 321.90&#10;  Q 660.37 323.55 663.72 325.98&#10;  Q 672.87 332.63 677.17 336.54&#10;  Q 678.31 337.58 680.39 341.42&#10;  Q 681.54 343.57 686.44 347.56&#10;  Q 687.05 348.05 689.42 352.33&#10;  Q 690.87 354.93 692.41 357.02&#10;  C 697.80 364.35 701.80 373.31 705.20 379.36&#10;  Q 707.13 382.80 707.93 386.31&#10;  Q 708.79 390.10 711.59 397.94&#10;  Q 712.81 401.36 713.06 408.66&#10;  C 713.13 410.61 713.84 413.04 714.00 415.03&#10;  Q 715.72 437.27 713.49 461.50&#10;  Q 713.13 465.41 712.23 468.70&#10;  Q 710.80 473.93 710.75 474.07&#10;  Q 707.31 485.53 704.80 489.59&#10;  Q 702.63 493.09 700.58 496.68&#10;  Q 700.54 496.75 696.72 502.71&#10;  Q 694.39 506.35 692.93 509.91&#10;  C 692.06 512.03 689.78 515.85 687.57 517.68&#10;  Q 682.32 522.04 677.72 527.01&#10;  Q 675.36 529.56 671.99 531.61&#10;  Q 668.15 533.95 663.38 537.41&#10;  Q 661.89 538.49 656.50 540.38&#10;  Q 653.10 541.57 650.20 543.00&#10;  C 642.63 546.72 633.78 548.21 625.23 549.77&#10;  Q 620.69 550.60 616.75 550.24&#10;  C 612.16 549.83 605.92 550.90 601.14 550.75&#10;  Q 589.01 550.36 575.25 549.41&#10;  Q 571.81 549.17 567.81 548.15&#10;  C 563.60 547.07 561.28 546.76 558.19 545.26&#10;  Q 554.29 543.37 549.02 542.11&#10;  C 546.51 541.51 543.79 539.46 541.52 539.17&#10;  Q 536.07 538.50 532.71 537.68&#10;  Q 530.56 537.15 529.41 537.70&#10;  Q 527.11 538.77 526.83 540.26&#10;  C 525.66 546.47 529.03 548.14 534.40 549.74&#10;  C 538.64 551.00 542.62 551.76 545.60 554.98&#10;  Q 548.24 557.84 551.38 559.89&#10;  Q 552.22 560.44 553.14 562.76&#10;  Q 554.11 565.19 554.27 565.94&#10;  Q 556.04 574.44 558.46 589.32&#10;  C 559.28 594.38 557.95 600.34 557.61 604.12&#10;  C 556.97 611.23 552.86 617.97 548.28 622.92&#10;  Q 545.98 625.41 540.87 627.90&#10;  Q 539.12 628.75 531.80 632.52&#10;  Q 528.73 634.09 526.92 635.83&#10;  Q 523.38 639.23 520.20 640.19&#10;  C 515.63 641.58 510.70 643.62 505.29 644.52&#10;  C 502.10 645.05 499.01 646.64 495.91 647.01&#10;  C 489.27 647.80 482.65 649.44 475.45 650.06&#10;  Q 468.95 650.61 466.18 651.23&#10;  Q 461.11 652.36 455.31 652.57&#10;  C 448.89 652.80 438.88 653.02 429.25 654.40&#10;  Q 421.40 655.52 417.50 655.14&#10;  Q 410.12 654.42 407.91 654.24&#10;  Q 405.08 654.00 398.59 654.05&#10;  C 393.27 654.10 388.76 653.26 383.33 653.66&#10;  Q 380.20 653.89 377.38 653.42&#10;  Q 365.27 651.39 360.24 650.85&#10;  Q 355.81 650.38 348.99 648.77&#10;  C 340.71 646.82 333.56 646.72 323.75 646.51&#10;  C 321.66 646.47 317.89 645.72 315.68 644.64&#10;  C 312.84 643.25 310.27 642.23 307.20 641.61&#10;  C 301.55 640.46 298.00 639.38 293.48 638.79&#10;  C 286.29 637.86 278.46 635.88 271.52 632.70&#10;  C 268.20 631.17 264.88 630.11 262.58 628.48&#10;  Q 256.94 624.47 255.51 622.25&#10;  C 253.26 618.75 248.95 613.66 247.74 609.54&#10;  C 246.27 604.50 246.92 602.23 248.35 596.73&#10;  Q 249.05 594.04 249.71 590.98&#10;  Q 251.52 582.66 252.42 580.67&#10;  Q 255.41 574.12 257.39 567.18&#10;  Q 257.69 566.10 259.49 564.24&#10;  C 263.71 559.85 266.12 555.82 272.85 554.05&#10;  C 277.81 552.75 276.20 546.11 272.82 544.24&#10;  C 270.27 542.83 263.75 544.92 261.52 546.06&#10;  Q 257.75 547.99 255.45 548.58&#10;  Q 253.70 549.03 248.69 551.00&#10;  C 244.24 552.75 241.36 553.28 236.75 553.09&#10;  C 233.36 552.94 229.12 552.18 225.95 553.17&#10;  C 223.72 553.87 221.47 553.61 219.56 552.94&#10;  C 214.37 551.09 209.22 552.86 204.77 552.36&#10;  Q 194.77 551.24 176.02 547.67&#10;  Q 171.30 546.77 170.24 546.31&#10;  Q 167.13 544.95 164.26 543.71&#10;  C 160.66 542.15 155.95 538.91 151.75 537.57&#10;  C 147.25 536.14 144.70 534.41 139.81 531.97&#10;  Q 138.43 531.28 135.74 527.83&#10;  Q 133.93 525.51 131.61 523.60&#10;  C 126.11 519.07 121.59 513.34 117.97 508.68&#10;  C 116.56 506.87 113.53 504.91 112.71 503.28&#10;  Q 107.58 493.06 102.61 482.78&#10;  Q 102.01 481.54 101.88 480.43&#10;  C 101.44 476.53 98.54 475.43 98.64 471.49&#10;  Q 98.68 469.91 97.83 467.79&#10;  A 1.95 1.91 -52.9 0 1 97.70 466.79&#10;  Q 98.12 463.63 97.06 461.36&#10;  Q 96.84 460.89 97.00 460.39&#10;  C 97.75 458.19 96.49 455.37 96.35 453.52&#10;  Q 95.83 446.98 95.18 442.05&#10;  Q 94.89 439.88 95.44 433.81&#10;  Q 95.83 429.36 95.02 424.75&#10;  A 1.49 1.48 -37.0 0 1 95.15 423.85&#10;  Q 96.07 421.98 95.19 419.96&#10;  Q 94.98 419.47 95.09 418.96&#10;  Q 96.10 414.40 97.46 411.50&#10;  Q 98.93 408.36 99.21 405.63&#10;  Q 99.35 404.27 100.79 399.61&#10;  Q 102.46 394.19 104.54 382.49&#10;  Q 105.32 378.09 106.84 376.85&#10;  C 108.12 375.80 109.43 374.57 109.74 372.46&#10;  C 110.19 369.40 111.19 368.02 113.28 365.60&#10;  Q 114.48 364.20 115.20 362.49&#10;  C 117.37 357.26 118.69 352.80 124.03 349.92&#10;  Q 124.47 349.68 124.70 349.23&#10;  C 126.25 346.31 127.31 344.49 130.35 342.12&#10;  Q 132.89 340.13 136.45 336.20&#10;  Q 137.90 334.59 142.25 331.31&#10;  Q 144.15 329.89 147.94 326.33&#10;  Q 152.98 321.60 158.42 318.91&#10;  Q 168.43 313.96 168.96 313.69&#10;  C 172.84 311.69 177.25 310.70 180.85 309.00&#10;  Q 183.28 307.85 186.67 307.54&#10;  C 191.32 307.12 194.81 307.03 199.06 305.89&#10;  C 201.38 305.27 205.84 303.70 209.48 303.65&#10;  C 211.18 303.63 212.51 304.99 214.52 304.88&#10;  Q 218.90 304.65 222.36 304.44&#10;  Q 224.67 304.31 230.09 305.45&#10;  Q 239.43 307.41 248.73 309.41&#10;  Z&#10;  M 574.00 354.19&#10;  C 570.49 353.38 568.62 356.06 566.80 357.56&#10;  C 564.40 359.53 563.09 362.06 561.25 364.01&#10;  C 559.57 365.79 557.28 370.63 557.15 372.18&#10;  Q 556.80 376.44 558.05 381.87&#10;  Q 558.49 383.79 560.38 385.46&#10;  C 563.22 387.99 565.67 393.05 569.11 395.86&#10;  Q 572.33 398.50 574.26 400.31&#10;  Q 575.79 401.76 579.87 404.09&#10;  Q 582.17 405.41 586.18 406.13&#10;  Q 598.49 408.34 605.85 408.20&#10;  C 614.84 408.03 625.11 411.38 633.05 406.50&#10;  Q 634.41 405.67 635.78 405.28&#10;  Q 644.36 402.86 651.77 400.04&#10;  C 654.51 399.00 655.40 397.09 657.34 394.78&#10;  C 659.73 391.93 662.00 385.18 660.26 382.02&#10;  Q 657.97 377.86 656.28 372.53&#10;  C 655.21 369.15 652.44 369.58 651.04 368.06&#10;  Q 644.50 360.98 643.19 360.13&#10;  Q 639.78 357.91 630.92 355.40&#10;  Q 624.45 353.56 617.85 352.12&#10;  Q 615.04 351.50 612.09 351.60&#10;  Q 609.53 351.68 604.28 350.27&#10;  C 603.53 350.07 602.70 349.83 601.56 350.04&#10;  Q 596.11 351.08 592.66 350.89&#10;  C 589.07 350.69 585.51 351.72 582.13 351.01&#10;  A 1.66 1.60 38.7 0 0 581.15 351.10&#10;  Q 578.02 352.47 575.75 353.74&#10;  Q 574.67 354.35 574.00 354.19&#10;  Z&#10;  M 148.50 387.63&#10;  Q 148.73 388.34 148.98 392.08&#10;  C 149.43 398.95 156.21 405.03 162.01 407.93&#10;  C 164.23 409.04 167.05 409.34 170.53 410.04&#10;  C 176.26 411.21 183.42 410.89 188.60 410.95&#10;  C 191.42 410.99 193.60 411.98 196.12 412.34&#10;  A 1.04 1.02 26.2 0 0 196.99 412.05&#10;  L 197.33 411.71&#10;  A 0.87 0.86 32.5 0 1 198.24 411.51&#10;  Q 202.49 413.14 206.82 411.78&#10;  Q 211.09 410.43 211.92 410.27&#10;  C 217.02 409.25 222.28 407.85 226.56 404.90&#10;  Q 228.42 403.61 231.18 402.66&#10;  Q 238.27 400.22 241.70 397.41&#10;  Q 247.21 392.90 248.83 391.63&#10;  A 4.10 4.06 -15.1 0 0 250.33 389.05&#10;  Q 250.81 385.88 251.43 383.92&#10;  Q 252.23 381.37 251.62 379.19&#10;  Q 249.72 372.35 246.66 368.19&#10;  C 244.47 365.22 241.02 362.80 238.48 360.25&#10;  Q 236.61 358.39 234.52 356.98&#10;  C 232.79 355.82 229.30 352.95 227.01 352.70&#10;  Q 221.14 352.08 214.96 350.68&#10;  Q 212.28 350.08 209.02 351.18&#10;  Q 208.10 351.49 207.00 350.73&#10;  A 1.02 0.99 56.3 0 0 206.24 350.57&#10;  L 197.72 352.12&#10;  Q 197.18 352.21 196.67 352.04&#10;  Q 194.74 351.39 193.66 352.64&#10;  A 1.16 1.16 0.0 0 1 192.71 353.03&#10;  Q 188.86 352.76 185.50 353.25&#10;  Q 178.53 354.26 175.27 354.62&#10;  Q 172.70 354.90 170.53 356.30&#10;  Q 164.76 360.03 163.69 360.95&#10;  Q 159.56 364.49 154.92 370.64&#10;  Q 150.81 376.07 150.13 378.66&#10;  Q 148.96 383.08 147.66 386.33&#10;  Q 147.58 386.54 147.73 386.69&#10;  L 148.25 387.21&#10;  A 1.00 0.97 15.3 0 1 148.50 387.63&#10;  Z&#10;  M 369.83 419.87&#10;  Q 369.74 419.73 369.58 419.69&#10;  Q 369.35 419.63 368.93 419.81&#10;  Q 365.92 421.13 362.21 423.80&#10;  A 2.01 2.00 -57.5 0 1 360.69 424.14&#10;  L 354.05 422.94&#10;  Q 353.55 422.85 353.12 423.12&#10;  Q 347.39 426.61 344.21 421.03&#10;  Q 343.97 420.60 344.05 420.11&#10;  C 344.73 416.43 346.44 415.46 348.48 413.55&#10;  C 352.18 410.08 352.41 405.04 348.32 401.82&#10;  C 346.45 400.36 345.52 399.55 343.27 400.01&#10;  C 336.20 401.43 332.05 405.81 327.43 411.42&#10;  Q 324.36 415.15 323.93 416.79&#10;  Q 323.46 418.59 323.58 421.71&#10;  C 323.71 425.05 323.66 428.60 325.94 432.60&#10;  Q 326.93 434.34 330.26 437.05&#10;  Q 332.79 439.12 335.19 440.82&#10;  C 340.66 444.72 344.92 444.38 349.82 445.19&#10;  C 354.90 446.03 360.96 443.46 366.18 442.36&#10;  C 368.65 441.84 370.79 440.07 373.49 439.40&#10;  C 380.56 437.65 386.62 433.91 393.04 429.78&#10;  Q 393.47 429.51 393.96 429.64&#10;  C 402.45 431.97 407.71 433.17 413.53 436.48&#10;  Q 416.85 438.37 419.41 439.34&#10;  Q 430.80 443.63 431.37 443.84&#10;  Q 434.04 444.84 436.01 444.75&#10;  C 439.32 444.60 441.86 443.55 445.17 444.45&#10;  Q 447.19 445.00 450.73 445.21&#10;  C 453.37 445.37 456.46 446.83 459.09 446.27&#10;  Q 462.90 445.45 466.97 443.81&#10;  C 469.42 442.83 471.10 440.65 473.37 438.35&#10;  Q 476.30 435.40 477.35 433.43&#10;  Q 480.84 426.83 479.75 418.99&#10;  Q 478.90 412.93 474.20 408.78&#10;  Q 473.43 408.10 468.14 406.49&#10;  C 466.90 406.12 466.18 405.64 464.91 404.89&#10;  A 1.54 1.52 57.7 0 0 463.96 404.67&#10;  Q 462.47 404.83 461.26 405.86&#10;  Q 460.87 406.20 460.37 406.34&#10;  Q 456.22 407.51 457.35 412.09&#10;  Q 457.48 412.60 457.39 413.12&#10;  L 457.18 414.26&#10;  A 1.66 1.66 0.0 0 0 457.64 415.72&#10;  L 462.28 420.36&#10;  A 1.59 1.58 41.0 0 1 462.43 422.42&#10;  C 460.78 424.63 458.02 426.56 454.98 425.79&#10;  C 452.55 425.18 449.50 425.89 447.06 424.46&#10;  Q 446.57 424.17 446.21 424.61&#10;  Q 445.07 426.02 443.60 425.06&#10;  Q 443.17 424.79 442.66 424.80&#10;  C 441.10 424.83 439.89 424.92 438.32 424.41&#10;  C 434.59 423.18 432.05 422.69 429.24 421.09&#10;  C 426.52 419.55 424.76 418.62 421.94 417.81&#10;  C 419.25 417.04 416.38 415.73 414.78 415.10&#10;  Q 402.00 410.09 401.96 410.07&#10;  C 397.53 408.28 394.10 409.71 390.45 410.25&#10;  Q 387.59 410.67 385.76 411.52&#10;  Q 381.35 413.55 376.13 417.61&#10;  Q 373.95 419.31 370.42 420.11&#10;  Q 370.04 420.20 369.83 419.87&#10;  Z&#10;  M 466.90 554.09&#10;  C 465.90 552.25 466.27 549.27 463.89 548.40&#10;  C 459.66 546.87 454.43 548.75 450.72 552.03&#10;  Q 449.65 552.97 447.64 554.27&#10;  Q 444.58 556.24 444.25 557.02&#10;  Q 442.26 561.61 441.13 563.80&#10;  C 438.69 568.54 439.85 573.48 438.11 577.76&#10;  C 437.46 579.38 438.03 582.69 438.17 584.54&#10;  Q 438.33 586.67 439.28 588.52&#10;  C 440.96 591.81 443.84 598.37 447.93 599.36&#10;  Q 453.73 600.77 458.98 603.55&#10;  C 460.73 604.48 463.69 605.58 465.15 605.86&#10;  Q 466.75 606.16 468.96 605.10&#10;  A 1.71 1.69 35.2 0 1 469.91 604.94&#10;  C 475.90 605.70 479.13 606.54 483.44 603.70&#10;  C 486.34 601.79 488.02 599.22 490.94 597.61&#10;  C 494.13 595.85 497.20 592.66 499.24 588.84&#10;  Q 500.45 586.58 503.84 582.62&#10;  C 506.37 579.66 503.22 576.47 501.11 574.77&#10;  C 497.61 571.93 490.99 574.40 488.10 577.09&#10;  C 485.06 579.91 482.34 581.38 479.78 583.27&#10;  C 475.72 586.26 472.44 587.38 467.61 586.75&#10;  C 464.90 586.39 461.32 584.67 459.34 584.01&#10;  C 454.09 582.25 456.04 575.24 457.16 571.22&#10;  C 458.01 568.17 461.47 566.00 462.92 563.21&#10;  Q 465.41 558.39 466.94 555.02&#10;  Q 467.16 554.55 466.90 554.09&#10;  Z&#10;  M 343.69 573.66&#10;  A 0.65 0.65 0.0 0 1 343.40 574.41&#10;  C 340.76 575.96 338.90 578.00 336.05 579.25&#10;  Q 330.76 581.55 330.59 581.60&#10;  Q 325.97 582.77 321.54 581.65&#10;  C 320.06 581.27 319.26 580.39 317.98 579.28&#10;  C 316.14 577.69 312.83 576.48 311.78 575.10&#10;  Q 309.63 572.30 308.40 569.32&#10;  Q 307.05 566.03 305.47 564.92&#10;  Q 302.07 562.54 298.05 564.68&#10;  C 296.91 565.29 295.71 565.61 295.35 567.08&#10;  Q 294.96 568.66 294.19 574.63&#10;  C 293.43 580.44 298.47 588.58 303.20 592.06&#10;  Q 310.11 597.13 314.97 598.50&#10;  Q 320.95 600.18 324.49 601.12&#10;  A 1.16 1.12 -8.9 0 1 325.16 601.59&#10;  Q 325.36 601.88 325.66 602.04&#10;  Q 325.81 602.13 326.49 601.98&#10;  Q 331.59 600.91 336.57 599.60&#10;  C 338.48 599.09 340.32 598.00 341.75 597.30&#10;  Q 343.38 596.50 345.74 595.90&#10;  Q 349.20 595.03 350.37 594.10&#10;  Q 358.63 587.50 362.44 577.77&#10;  C 363.68 574.59 364.38 567.00 362.43 564.56&#10;  Q 359.04 560.34 357.53 557.59&#10;  Q 356.33 555.41 354.50 554.64&#10;  Q 348.79 552.24 343.06 554.44&#10;  Q 340.36 555.48 339.90 557.21&#10;  C 338.90 560.99 339.40 567.59 342.50 571.34&#10;  Q 343.28 572.29 343.69 573.66&#10;  Z"/>
<path fill="#b1b1b1" d="&#10;  M 361.62 382.72&#10;  L 360.07 384.90&#10;  A 1.21 1.19 12.9 0 1 359.28 385.39&#10;  C 357.93 385.61 356.69 385.81 355.04 386.48&#10;  Q 349.08 388.88 342.15 387.01&#10;  C 339.42 386.27 337.73 385.61 336.26 383.00&#10;  Q 334.43 379.77 333.50 376.38&#10;  Q 333.40 371.58 333.27 366.96&#10;  C 333.05 359.70 333.81 352.33 333.98 345.00&#10;  Q 334.00 344.11 335.25 337.77&#10;  Q 335.35 337.28 335.19 336.81&#10;  Q 334.82 335.75 335.19 334.79&#10;  Q 335.76 333.32 335.81 333.03&#10;  Q 336.68 327.84 338.12 323.33&#10;  C 338.94 320.73 341.62 318.90 343.05 317.31&#10;  C 344.63 315.53 346.06 315.17 347.90 314.01&#10;  C 349.93 312.74 354.10 314.34 356.39 315.39&#10;  C 357.82 316.04 359.11 317.86 360.72 319.03&#10;  C 363.23 320.84 363.76 329.43 363.85 332.35&#10;  Q 363.89 333.75 364.43 341.89&#10;  C 364.77 346.93 364.07 351.77 363.91 357.34&#10;  Q 363.89 357.80 363.31 366.14&#10;  Q 363.03 370.07 363.29 374.99&#10;  Q 363.49 378.69 361.62 382.72&#10;  Z"/>
<path fill="#b1b1b1" d="&#10;  M 478.79 371.51&#10;  C 478.65 376.46 477.94 381.79 474.97 385.91&#10;  C 472.13 389.83 470.56 391.56 466.04 393.20&#10;  C 461.13 395.00 456.14 393.63 452.62 389.89&#10;  Q 449.34 386.40 447.38 382.32&#10;  Q 447.50 381.33 447.37 380.31&#10;  C 447.14 378.49 445.32 377.35 446.49 375.50&#10;  Q 446.78 375.03 446.79 374.48&#10;  Q 447.00 364.10 446.76 356.57&#10;  Q 446.68 354.06 447.45 350.07&#10;  Q 448.06 346.91 447.92 343.41&#10;  Q 447.90 342.91 448.16 342.47&#10;  Q 450.63 338.36 450.38 333.98&#10;  Q 450.15 329.70 451.81 327.09&#10;  Q 454.42 323.02 455.51 320.70&#10;  Q 455.72 320.25 456.19 320.09&#10;  C 461.58 318.31 470.14 317.15 473.04 323.73&#10;  C 474.23 326.43 475.87 328.19 476.39 331.72&#10;  Q 477.52 339.40 477.59 345.00&#10;  Q 477.65 349.72 478.07 351.68&#10;  Q 478.67 354.42 478.02 356.89&#10;  Q 477.68 358.18 477.52 362.82&#10;  C 477.41 365.79 478.53 368.44 478.79 371.51&#10;  Z"/>
<path fill="#c9c9c9" d="&#10;  M 574.00 354.19&#10;  Q 574.67 354.35 575.75 353.74&#10;  Q 578.02 352.47 581.15 351.10&#10;  A 1.66 1.60 38.7 0 1 582.13 351.01&#10;  C 585.51 351.72 589.07 350.69 592.66 350.89&#10;  Q 596.11 351.08 601.56 350.04&#10;  C 602.70 349.83 603.53 350.07 604.28 350.27&#10;  Q 609.53 351.68 612.09 351.60&#10;  Q 615.04 351.50 617.85 352.12&#10;  Q 624.45 353.56 630.92 355.40&#10;  Q 639.78 357.91 643.19 360.13&#10;  Q 644.50 360.98 651.04 368.06&#10;  C 652.44 369.58 655.21 369.15 656.28 372.53&#10;  Q 657.97 377.86 660.26 382.02&#10;  C 662.00 385.18 659.73 391.93 657.34 394.78&#10;  C 655.40 397.09 654.51 399.00 651.77 400.04&#10;  Q 644.36 402.86 635.78 405.28&#10;  Q 634.41 405.67 633.05 406.50&#10;  C 625.11 411.38 614.84 408.03 605.85 408.20&#10;  Q 598.49 408.34 586.18 406.13&#10;  Q 582.17 405.41 579.87 404.09&#10;  Q 575.79 401.76 574.26 400.31&#10;  Q 572.33 398.50 569.11 395.86&#10;  C 565.67 393.05 563.22 387.99 560.38 385.46&#10;  Q 558.49 383.79 558.05 381.87&#10;  Q 556.80 376.44 557.15 372.18&#10;  C 557.28 370.63 559.57 365.79 561.25 364.01&#10;  C 563.09 362.06 564.40 359.53 566.80 357.56&#10;  C 568.62 356.06 570.49 353.38 574.00 354.19&#10;  Z"/>
<path fill="#c9c9c9" d="&#10;  M 148.25 387.21&#10;  L 147.73 386.69&#10;  Q 147.58 386.54 147.66 386.33&#10;  Q 148.96 383.08 150.13 378.66&#10;  Q 150.81 376.07 154.92 370.64&#10;  Q 159.56 364.49 163.69 360.95&#10;  Q 164.76 360.03 170.53 356.30&#10;  Q 172.70 354.90 175.27 354.62&#10;  Q 178.53 354.26 185.50 353.25&#10;  Q 188.86 352.76 192.71 353.03&#10;  A 1.16 1.16 0.0 0 0 193.66 352.64&#10;  Q 194.74 351.39 196.67 352.04&#10;  Q 197.18 352.21 197.72 352.12&#10;  L 206.24 350.57&#10;  A 1.02 0.99 56.3 0 1 207.00 350.73&#10;  Q 208.10 351.49 209.02 351.18&#10;  Q 212.28 350.08 214.96 350.68&#10;  Q 221.14 352.08 227.01 352.70&#10;  C 229.30 352.95 232.79 355.82 234.52 356.98&#10;  Q 236.61 358.39 238.48 360.25&#10;  C 241.02 362.80 244.47 365.22 246.66 368.19&#10;  Q 249.72 372.35 251.62 379.19&#10;  Q 252.23 381.37 251.43 383.92&#10;  Q 250.81 385.88 250.33 389.05&#10;  A 4.10 4.06 -15.1 0 1 248.83 391.63&#10;  Q 247.21 392.90 241.70 397.41&#10;  Q 238.27 400.22 231.18 402.66&#10;  Q 228.42 403.61 226.56 404.90&#10;  C 222.28 407.85 217.02 409.25 211.92 410.27&#10;  Q 211.09 410.43 206.82 411.78&#10;  Q 202.49 413.14 198.24 411.51&#10;  A 0.87 0.86 32.5 0 0 197.33 411.71&#10;  L 196.99 412.05&#10;  A 1.04 1.02 26.2 0 1 196.12 412.34&#10;  C 193.60 411.98 191.42 410.99 188.60 410.95&#10;  C 183.42 410.89 176.26 411.21 170.53 410.04&#10;  C 167.05 409.34 164.23 409.04 162.01 407.93&#10;  C 156.21 405.03 149.43 398.95 148.98 392.08&#10;  Q 148.73 388.34 148.50 387.63&#10;  A 1.00 0.97 15.3 0 0 148.25 387.21&#10;  Z"/>
<path fill="#b1b1b1" d="&#10;  M 426.19 385.53&#10;  C 426.35 391.35 424.31 393.81 420.37 397.62&#10;  C 417.96 399.96 406.35 400.06 402.93 400.11&#10;  C 399.85 400.15 396.83 398.53 394.00 397.71&#10;  C 389.54 396.41 384.58 394.60 382.25 392.75&#10;  Q 380.87 391.66 378.23 387.27&#10;  Q 377.59 380.56 381.52 376.13&#10;  C 383.19 374.25 386.27 372.71 388.57 371.07&#10;  C 391.04 369.29 395.96 369.18 401.21 368.93&#10;  Q 404.89 368.75 408.78 369.93&#10;  Q 414.38 371.63 415.99 372.43&#10;  C 420.35 374.60 425.50 380.15 426.19 385.53&#10;  Z"/>
<path fill="#b1b1b1" d="&#10;  M 370.42 420.11&#10;  Q 373.95 419.31 376.13 417.61&#10;  Q 381.35 413.55 385.76 411.52&#10;  Q 387.59 410.67 390.45 410.25&#10;  C 394.10 409.71 397.53 408.28 401.96 410.07&#10;  Q 402.00 410.09 414.78 415.10&#10;  C 416.38 415.73 419.25 417.04 421.94 417.81&#10;  C 424.76 418.62 426.52 419.55 429.24 421.09&#10;  C 432.05 422.69 434.59 423.18 438.32 424.41&#10;  C 439.89 424.92 441.10 424.83 442.66 424.80&#10;  Q 443.17 424.79 443.60 425.06&#10;  Q 445.07 426.02 446.21 424.61&#10;  Q 446.57 424.17 447.06 424.46&#10;  C 449.50 425.89 452.55 425.18 454.98 425.79&#10;  C 458.02 426.56 460.78 424.63 462.43 422.42&#10;  A 1.59 1.58 41.0 0 0 462.28 420.36&#10;  L 457.64 415.72&#10;  A 1.66 1.66 0.0 0 1 457.18 414.26&#10;  L 457.39 413.12&#10;  Q 457.48 412.60 457.35 412.09&#10;  Q 456.22 407.51 460.37 406.34&#10;  Q 460.87 406.20 461.26 405.86&#10;  Q 462.47 404.83 463.96 404.67&#10;  A 1.54 1.52 57.7 0 1 464.91 404.89&#10;  C 466.18 405.64 466.90 406.12 468.14 406.49&#10;  Q 473.43 408.10 474.20 408.78&#10;  Q 478.90 412.93 479.75 418.99&#10;  Q 480.84 426.83 477.35 433.43&#10;  Q 476.30 435.40 473.37 438.35&#10;  C 471.10 440.65 469.42 442.83 466.97 443.81&#10;  Q 462.90 445.45 459.09 446.27&#10;  C 456.46 446.83 453.37 445.37 450.73 445.21&#10;  Q 447.19 445.00 445.17 444.45&#10;  C 441.86 443.55 439.32 444.60 436.01 444.75&#10;  Q 434.04 444.84 431.37 443.84&#10;  Q 430.80 443.63 419.41 439.34&#10;  Q 416.85 438.37 413.53 436.48&#10;  C 407.71 433.17 402.45 431.97 393.96 429.64&#10;  Q 393.47 429.51 393.04 429.78&#10;  C 386.62 433.91 380.56 437.65 373.49 439.40&#10;  C 370.79 440.07 368.65 441.84 366.18 442.36&#10;  C 360.96 443.46 354.90 446.03 349.82 445.19&#10;  C 344.92 444.38 340.66 444.72 335.19 440.82&#10;  Q 332.79 439.12 330.26 437.05&#10;  Q 326.93 434.34 325.94 432.60&#10;  C 323.66 428.60 323.71 425.05 323.58 421.71&#10;  Q 323.46 418.59 323.93 416.79&#10;  Q 324.36 415.15 327.43 411.42&#10;  C 332.05 405.81 336.20 401.43 343.27 400.01&#10;  C 345.52 399.55 346.45 400.36 348.32 401.82&#10;  C 352.41 405.04 352.18 410.08 348.48 413.55&#10;  C 346.44 415.46 344.73 416.43 344.05 420.11&#10;  Q 343.97 420.60 344.21 421.03&#10;  Q 347.39 426.61 353.12 423.12&#10;  Q 353.55 422.85 354.05 422.94&#10;  L 360.69 424.14&#10;  A 2.01 2.00 -57.5 0 0 362.21 423.80&#10;  Q 365.92 421.13 368.93 419.81&#10;  Q 369.35 419.63 369.58 419.69&#10;  Q 369.74 419.73 369.83 419.87&#10;  Q 370.04 420.20 370.42 420.11&#10;  Z"/>
<path fill="#c9c9c9" d="&#10;  M 463.89 548.40&#10;  C 466.27 549.27 465.90 552.25 466.90 554.09&#10;  Q 467.16 554.55 466.94 555.02&#10;  Q 465.41 558.39 462.92 563.21&#10;  C 461.47 566.00 458.01 568.17 457.16 571.22&#10;  C 456.04 575.24 454.09 582.25 459.34 584.01&#10;  C 461.32 584.67 464.90 586.39 467.61 586.75&#10;  C 472.44 587.38 475.72 586.26 479.78 583.27&#10;  C 482.34 581.38 485.06 579.91 488.10 577.09&#10;  C 490.99 574.40 497.61 571.93 501.11 574.77&#10;  C 503.22 576.47 506.37 579.66 503.84 582.62&#10;  Q 500.45 586.58 499.24 588.84&#10;  C 497.20 592.66 494.13 595.85 490.94 597.61&#10;  C 488.02 599.22 486.34 601.79 483.44 603.70&#10;  C 479.13 606.54 475.90 605.70 469.91 604.94&#10;  A 1.71 1.69 35.2 0 0 468.96 605.10&#10;  Q 466.75 606.16 465.15 605.86&#10;  C 463.69 605.58 460.73 604.48 458.98 603.55&#10;  Q 453.73 600.77 447.93 599.36&#10;  C 443.84 598.37 440.96 591.81 439.28 588.52&#10;  Q 438.33 586.67 438.17 584.54&#10;  C 438.03 582.69 437.46 579.38 438.11 577.76&#10;  C 439.85 573.48 438.69 568.54 441.13 563.80&#10;  Q 442.26 561.61 444.25 557.02&#10;  Q 444.58 556.24 447.64 554.27&#10;  Q 449.65 552.97 450.72 552.03&#10;  C 454.43 548.75 459.66 546.87 463.89 548.40&#10;  Z"/>
<path fill="#c9c9c9" d="&#10;  M 343.69 573.66&#10;  Q 343.28 572.29 342.50 571.34&#10;  C 339.40 567.59 338.90 560.99 339.90 557.21&#10;  Q 340.36 555.48 343.06 554.44&#10;  Q 348.79 552.24 354.50 554.64&#10;  Q 356.33 555.41 357.53 557.59&#10;  Q 359.04 560.34 362.43 564.56&#10;  C 364.38 567.00 363.68 574.59 362.44 577.77&#10;  Q 358.63 587.50 350.37 594.10&#10;  Q 349.20 595.03 345.74 595.90&#10;  Q 343.38 596.50 341.75 597.30&#10;  C 340.32 598.00 338.48 599.09 336.57 599.60&#10;  Q 331.59 600.91 326.49 601.98&#10;  Q 325.81 602.13 325.66 602.04&#10;  Q 325.36 601.88 325.16 601.59&#10;  A 1.16 1.12 -8.9 0 0 324.49 601.12&#10;  Q 320.95 600.18 314.97 598.50&#10;  Q 310.11 597.13 303.20 592.06&#10;  C 298.47 588.58 293.43 580.44 294.19 574.63&#10;  Q 294.96 568.66 295.35 567.08&#10;  C 295.71 565.61 296.91 565.29 298.05 564.68&#10;  Q 302.07 562.54 305.47 564.92&#10;  Q 307.05 566.03 308.40 569.32&#10;  Q 309.63 572.30 311.78 575.10&#10;  C 312.83 576.48 316.14 577.69 317.98 579.28&#10;  C 319.26 580.39 320.06 581.27 321.54 581.65&#10;  Q 325.97 582.77 330.59 581.60&#10;  Q 330.76 581.55 336.05 579.25&#10;  C 338.90 578.00 340.76 575.96 343.40 574.41&#10;  A 0.65 0.65 0.0 0 0 343.69 573.66&#10;  Z"/>
</svg>